<svg width="120" height="120" viewBox="0 0 120 120" fill="none" xmlns="http://www.w3.org/2000/svg">
<rect width="120" height="120" rx="60" fill="#FDB813"/>
<mask id="mask0_1_50" style="mask-type:luminance" maskUnits="userSpaceOnUse" x="28" y="31" width="63" height="61">
<path d="M91 31H28V92H91V31Z" fill="white"/>
</mask>
<g mask="url(#mask0_1_50)">
<path d="M72.5908 91.3267C68.1052 91.3267 59.5882 90.29 47.1535 81.7049C47.0967 81.665 47.054 81.6384 47.0115 81.5985C44.2293 79.2994 38.9062 74.4088 34.6477 67.4715C29.6794 59.3781 27.5076 50.8859 28.2032 42.221C28.2032 42.1811 28.2173 42.1412 28.2173 42.1014C28.3168 41.4103 29.3246 35.3369 33.7534 33.7288C35.5561 33.0776 37.657 32.3866 39.6017 32.2802C43.2782 32.0677 44.8254 33.9946 45.4217 35.1774C46.9121 38.1411 49.6943 46.1946 49.8079 46.5402C49.8079 46.5534 49.8079 46.5534 49.8221 46.5667C49.9924 47.0984 51.4119 51.7763 48.1329 53.7432C46.8411 54.514 45.2513 55.5905 44.3286 56.2284C44.3428 57.1454 44.6267 58.9661 46.3585 61.1589C49.5807 65.2522 56.3659 72.3356 59.3469 73.9835C59.6165 74.05 59.8721 73.957 60.1134 73.7044C60.9509 72.8406 63.4918 70.5415 63.6053 70.4351L63.6196 70.4219C64.6558 69.5049 67.1257 68.2822 69.8369 69.558C71.9662 70.5547 81.1787 75.9903 82.215 76.6149C82.2291 76.6282 82.2433 76.6282 82.2575 76.6415C83.5067 77.4256 85.5365 79.6849 84.259 82.6751C83.3364 84.828 79.6883 91.0343 75.1317 91.2602C75.0181 91.2602 74.9045 91.2735 74.7768 91.2735C74.1806 91.2868 73.4567 91.3267 72.5908 91.3267ZM49.7653 78.5419C63.3214 87.8846 71.441 87.446 74.5071 87.2733C74.6491 87.26 74.7768 87.26 74.8903 87.2467C76.3666 87.1802 79.1914 83.7515 80.2986 81.16C80.5541 80.5752 80.2134 80.1633 79.8727 79.924C77.048 78.2495 69.553 73.8639 67.9206 73.0931C67.1967 72.7608 66.5863 73.2526 66.5437 73.2792C65.834 73.9304 63.8751 75.7112 63.2505 76.3491C61.7742 77.8641 59.6308 78.3559 57.6577 77.6116C57.5725 77.585 57.5015 77.5452 57.4305 77.5053C53.5554 75.5118 46.0462 67.4449 42.9233 63.4714C39.2894 58.8465 40.1127 55.0589 40.2263 54.6469C40.3398 54.1951 40.6237 53.7964 41.007 53.5173C41.1206 53.4375 43.7608 51.5637 45.8333 50.3277C46.103 50.0752 46.0746 48.6533 45.7624 47.683C45.6346 47.3109 42.9375 39.4966 41.589 36.8253C41.447 36.5463 41.2341 36.121 39.8856 36.2007C38.5229 36.2805 36.8053 36.8519 35.3149 37.3968C33.6682 37.9948 32.7029 41.0781 32.4617 42.5399C31.0137 60.8798 44.0164 73.7842 49.7653 78.5419Z" fill="white"/>
<path d="M68.4457 62.581C67.3101 62.581 66.3732 61.7437 66.3164 60.6672C66.0751 55.0855 59.1906 53.9426 59.1196 53.9293C57.9556 53.7433 57.1749 52.7199 57.3737 51.6302C57.5724 50.5404 58.6654 49.8095 59.8294 49.9955C59.9287 50.0088 62.427 50.4208 64.9396 51.8428C68.4599 53.8363 70.4046 56.8265 70.5749 60.4945C70.6175 61.5975 69.7091 62.5278 68.5309 62.5677C68.5167 62.581 68.4741 62.581 68.4457 62.581Z" fill="white"/>
<path d="M78.4674 62.5808C77.3886 62.5808 76.4518 61.81 76.3524 60.7734C75.6853 54.3279 72.6333 49.6765 67.296 46.9521C63.2646 44.8922 59.4462 44.7327 59.4179 44.7327C58.2397 44.6928 57.3312 43.7626 57.3737 42.6595C57.4163 41.5565 58.41 40.7059 59.5882 40.7458C59.7869 40.7591 64.4428 40.9451 69.3401 43.4569C73.9108 45.7959 79.5888 50.6333 80.5967 60.4013C80.7102 61.4911 79.8585 62.4746 78.6803 62.5808C78.6093 62.5808 78.5384 62.5808 78.4674 62.5808Z" fill="white"/>
<path d="M88.56 63.7903C87.4669 63.7903 86.5301 62.9929 86.4449 61.9563C85.4938 50.8062 80.6676 42.9519 72.108 38.6062C65.6919 35.3502 59.5597 35.3635 59.5029 35.3635H59.4887C58.3247 35.3635 57.3737 34.4863 57.3595 33.3833C57.3452 32.2802 58.2963 31.3898 59.4745 31.3765C59.7726 31.3765 66.7707 31.3765 74.1379 35.1109C78.4957 37.317 82.0728 40.3737 84.7841 44.1879C88.1199 48.9058 90.1214 54.7798 90.7034 61.6374C90.8028 62.7404 89.9226 63.6972 88.7445 63.777C88.6735 63.777 88.6167 63.7903 88.56 63.7903Z" fill="white"/>
</g>
</svg>
