<svg width="120" height="120" viewBox="0 0 120 120" fill="none" xmlns="http://www.w3.org/2000/svg">
<rect width="120" height="120" rx="60" fill="#FDB813"/>
<path d="M89.0244 37H30.9756C27.7317 37 25 39.5807 25 42.6452V81.3548C25 84.4193 27.7317 87 30.9756 87H89.0244C92.2682 87 95 84.4193 95 81.3548V42.6452C95 39.5807 92.2682 37 89.0244 37ZM30.9756 41.8387H89.0244C89.5366 41.8387 89.8781 42.1613 89.8781 42.6452V44.5807L60 62.3226L30.1219 44.5807V42.6452C30.1219 42.1613 30.4634 41.8387 30.9756 41.8387ZM89.0244 82.1613H30.9756C30.4634 82.1613 30.1219 81.8387 30.1219 81.3548V50.2258L58.6342 67.1613C58.9756 67.4838 59.4878 67.4838 60 67.4838C60.5122 67.4838 61.0243 67.3226 61.3658 67.1613L89.8781 50.2258V81.3548C89.8781 81.8387 89.5366 82.1613 89.0244 82.1613Z" fill="white"/>
</svg>
