<svg width="120" height="120" viewBox="0 0 120 120" fill="none" xmlns="http://www.w3.org/2000/svg">
<rect width="120" height="120" rx="60" fill="#FDB813"/>
<mask id="mask0_1_49" style="mask-type:luminance" maskUnits="userSpaceOnUse" x="19" y="18" width="82" height="83">
<path d="M101 18H19V101H101V18Z" fill="white"/>
</mask>
<g mask="url(#mask0_1_49)">
<path d="M59.7295 96.1177C50.1882 96.1177 41.2054 92.4128 34.4566 85.6978C27.7079 78.9828 24 70.0603 24 60.5511C24 51.0575 27.7234 42.1195 34.4722 35.4044C41.2209 28.6894 50.1882 25 59.7295 25C69.2708 25 78.2537 28.7048 85.0024 35.4199C91.7512 42.135 95.4746 51.0575 95.4746 60.5665C95.4746 70.0603 91.7512 78.9982 85.0024 85.7132C78.2537 92.4128 69.2708 96.1177 59.7295 96.1177ZM59.7295 29.631C42.5862 29.631 28.6543 43.5088 28.6543 60.5511C28.6543 77.5935 42.5862 91.4866 59.7295 91.4866C76.8729 91.4866 90.8048 77.6089 90.8048 60.5665C90.8048 43.5243 76.8729 29.631 59.7295 29.631Z" fill="white"/>
<path d="M59.7295 96.1177C55.1218 96.1177 50.995 92.1504 48.0783 84.926C45.4408 78.3808 43.9825 69.7207 43.9825 60.5511C43.9825 51.3816 45.4408 42.7215 48.0783 36.1763C50.995 28.9673 55.1218 25 59.7295 25C64.3373 25 68.4642 28.9673 71.3808 36.1917C74.0183 42.737 75.4766 51.3971 75.4766 60.5665C75.4766 69.7361 74.0183 78.3962 71.3808 84.9414C68.4642 92.135 64.3373 96.1177 59.7295 96.1177ZM59.7295 29.631C57.2318 29.631 54.4857 32.7339 52.3913 37.9207C49.9555 43.9256 48.6213 51.9682 48.6213 60.5665C48.6213 69.1649 49.9555 77.1921 52.3913 83.2125C54.4857 88.3993 57.2318 91.5021 59.7295 91.5021C62.2274 91.5021 64.9734 88.3993 67.0679 83.2125C69.5036 77.2075 70.8378 69.1649 70.8378 60.5665C70.8378 51.9682 69.5036 43.9411 67.0679 37.9207C64.9734 32.7339 62.2274 29.631 59.7295 29.631Z" fill="white"/>
<path d="M93.1009 62.8667H26.3272C25.0395 62.8667 24 61.8324 24 60.5511C24 59.2699 25.0395 58.2356 26.3272 58.2356H93.1164C94.4041 58.2356 95.4435 59.2699 95.4435 60.5511C95.4435 61.8324 94.3886 62.8667 93.1009 62.8667Z" fill="white"/>
<path d="M58.2184 49.005C55.674 49.005 53.1762 48.866 50.6939 48.5728C41.6956 47.5231 35.8777 44.8525 33.6902 43.8645C33.5505 43.8028 33.3954 43.7256 33.2713 43.6792C32.9145 43.6021 32.5731 43.4323 32.2784 43.1699C31.3165 42.3362 31.2079 40.8698 32.0457 39.8972C32.3094 39.6039 33.2868 38.6623 34.9313 39.3415C35.1175 39.4187 35.3347 39.5113 35.6294 39.6503C49.7786 46.1183 66.6581 45.9793 84.4221 39.2489C85.6167 38.8013 86.9665 39.3879 87.4318 40.5919C87.8818 41.7805 87.2923 43.1235 86.0822 43.5867C76.5408 47.1989 67.2011 49.005 58.2184 49.005ZM35.5364 42.9537C35.4278 43.0772 35.3037 43.1853 35.1796 43.2779C35.3192 43.1853 35.4278 43.0772 35.5364 42.9537Z" fill="white"/>
<path d="M81.6206 87.8744C81.1862 87.8744 80.7362 87.751 80.3484 87.5039C70.5278 81.1439 60.6607 79.1526 51.0107 81.607C43.7501 83.4595 39.3129 87.2569 39.2664 87.3033C38.3044 88.1368 36.8306 88.0442 35.9773 87.0871C35.1396 86.1301 35.2171 84.6635 36.179 83.83C36.3807 83.6447 41.3609 79.3533 49.6145 77.1921C54.4549 75.9263 59.4505 75.6485 64.4462 76.374C70.6364 77.2693 76.8422 79.7083 82.8772 83.6293C83.9477 84.3239 84.258 85.7596 83.5598 86.8402C83.1254 87.504 82.3807 87.8744 81.6206 87.8744Z" fill="white"/>
</g>
</svg>
