<?xml version="1.0" encoding="utf-8"?>
<svg version="1.1" id="Layer_1" xmlns="http://www.w3.org/2000/svg" xmlns:xlink="http://www.w3.org/1999/xlink" x="0px" y="0px"
	 viewBox="0 0 200 200" style="enable-background:new 0 0 200 200;" xml:space="preserve">
<style type="text/css">
	.st0{fill:#B3B3B3;}
	.st1{fill:#666666;}
</style>
<g>
	<path class="st0" d="M100,8.6c50.4,0,91.4,41,91.4,91.4c0,50.4-41,91.4-91.4,91.4c-50.4,0-91.4-41-91.4-91.4
		C8.6,49.6,49.6,8.6,100,8.6 M100,1.6c-54.3,0-98.4,44-98.4,98.4c0,54.3,44,98.4,98.4,98.4c54.3,0,98.4-44,98.4-98.4
		C198.4,45.7,154.3,1.6,100,1.6L100,1.6z"/>
</g>
<g>
	<path class="st1" d="M125,95h-5v-15c0-11-9-20-20-20s-20,9-20,20v15h-5c-5.5,0-10,4.5-10,10v30c0,5.5,4.5,10,10,10h50c5.5,0,10-4.5,10-10v-30C135,99.5,130.5,95,125,95z M90,80c0-5.5,4.5-10,10-10s10,4.5,10,10v15H90V80z M100,125c-2.8,0-5-2.2-5-5s2.2-5,5-5s5,2.2,5,5S102.8,125,100,125z"/>
</g>
</svg>
