<?xml version="1.0" encoding="utf-8"?>
<!-- Generator: Adobe Illustrator 22.1.0, SVG Export Plug-In . SVG Version: 6.00 Build 0)  -->
<svg version="1.1" id="Layer_1" xmlns="http://www.w3.org/2000/svg" xmlns:xlink="http://www.w3.org/1999/xlink" x="0px" y="0px"
	 viewBox="0 0 200 200" style="enable-background:new 0 0 200 200;" xml:space="preserve">
<style type="text/css">
	.st0{fill:#B3B3B3;}
	.st1{fill:#666666;}
</style>
<g>
	<path class="st0" d="M100,8.6c50.4,0,91.4,41,91.4,91.4c0,50.4-41,91.4-91.4,91.4c-50.4,0-91.4-41-91.4-91.4
		C8.6,49.6,49.6,8.6,100,8.6 M100,1.6c-54.3,0-98.4,44-98.4,98.4c0,54.3,44,98.4,98.4,98.4c54.3,0,98.4-44,98.4-98.4
		C198.4,45.7,154.3,1.6,100,1.6L100,1.6z"/>
</g>
<g>
	<path class="st1" d="M66.4,95l7.1-14.9c0.4-0.9,1.3-1.5,2.3-1.5c0,0,0,0,0,0c1,0,1.9,0.6,2.3,1.5l13.3,27.5l5.8-9.5
		c0.5-0.8,1.4-1.2,2.3-1.2c0.9,0,1.8,0.5,2.2,1.4l5,9.3L121.1,80c0.5-0.9,1.4-1.4,2.3-1.4c1,0,1.8,0.6,2.3,1.5l6.7,14h18.9
		c3.2-14.1-4.6-25-8.5-28.7c-22.8-20-42.8-0.8-42.8-0.8s-20-19.2-42.8,0.8c-3.9,3.8-12.1,15-8.3,29.6H66.4z"/>
	<path class="st1" d="M130.8,99.2c-1,0-1.9-0.6-2.3-1.5l-5.2-10.9l-14.4,27.2c-0.4,0.8-1.3,1.4-2.3,1.4c0,0,0,0,0,0
		c-0.9,0-1.8-0.5-2.3-1.4l-5.1-9.6l-5.9,9.7c-0.5,0.8-1.3,1.2-2.2,1.2c0,0-0.1,0-0.1,0c-0.9,0-1.8-0.6-2.2-1.4l-13-26.9l-5.5,11.5
		c-0.4,0.9-1.3,1.5-2.3,1.5H50.7c0.7,1.5,1.5,3.1,2.4,4.7c4.4,6.8,16.7,17.7,24.4,25.3c7.7,7.6,17.4,17.3,17.4,17.3s2.8,3.1,5.1,2.8
		c2.2,0.3,5.1-2.8,5.1-2.8s9.7-9.7,17.4-17.3c7.7-7.6,20-18.6,24.4-25.3c1.2-1.9,2.1-3.8,2.8-5.6H130.8z"/>
</g>
</svg>
