<?xml version="1.0" encoding="utf-8"?>
<!-- Generator: Adobe Illustrator 22.1.0, SVG Export Plug-In . SVG Version: 6.00 Build 0)  -->
<svg version="1.1" id="Layer_1" xmlns="http://www.w3.org/2000/svg" xmlns:xlink="http://www.w3.org/1999/xlink" x="0px" y="0px"
	 viewBox="0 0 569 476" style="enable-background:new 0 0 569 476;" xml:space="preserve">
<style type="text/css">
	.st0{fill:#B3B3B3;}
	.st1{fill:#666666;}
</style>
<g>
	<path class="st0" d="M276.6,37.7c27.1,0,53.3,5.3,78,15.7c23.9,10.1,45.3,24.5,63.7,42.9c18.4,18.4,32.9,39.8,42.9,63.7
		c10.4,24.7,15.7,50.9,15.7,78c0,27.1-5.3,53.3-15.7,78c-10.1,23.9-24.5,45.3-42.9,63.7c-18.4,18.4-39.8,32.9-63.7,42.9
		c-24.7,10.4-50.9,15.7-78,15.7c-27.1,0-53.3-5.3-78-15.7c-23.9-10.1-45.3-24.5-63.7-42.9c-18.4-18.4-32.9-39.8-42.9-63.7
		c-10.4-24.7-15.7-50.9-15.7-78c0-27.1,5.3-53.3,15.7-78c10.1-23.9,24.5-45.3,42.9-63.7c18.4-18.4,39.8-32.9,63.7-42.9
		C223.3,43,249.5,37.7,276.6,37.7 M276.6,22.3C157.5,22.3,60.9,118.9,60.9,238c0,119.1,96.6,215.7,215.7,215.7
		c119.1,0,215.7-96.6,215.7-215.7C492.3,118.9,395.7,22.3,276.6,22.3L276.6,22.3z"/>
	<path class="st1" d="M401.9,198.2c0-7.6-7.8-7.9-7.8-7.9s-9.4-0.1-15.3,0c-5.9,0.1-9.9,5.9-9.9,5.9s-16.7-33.5-21.9-40.4
		c-5.2-7-18-8.2-51.7-9.8c-43.7-1.2-67,1.4-76.2,3.2c-9.5,2-10.9,4.5-17,13.1c-6.9,10.5-17.4,34-17.4,34s-5.5-4.3-6.9-5.4
		c-1.4-1.2-15.6-0.7-18.9-0.6c-3.3,0.1-7,2.8-7.5,7.7c-0.6,4.8,2.7,7.5,5.1,8.5c2.4,1,18,5.5,18,5.5s-1.1,1.4-9.8,10.2
		c-8.9,8.9-9.6,21.9-9.6,21.9s0,70.5,0,78.4c0,7.9,8.3,7.8,8.3,7.8s20,0,26.8,0c6.9,0,6.6-7.1,6.6-7.1v-13.5h159c0,0,0,8.6,0,15
		c0,6.4,7.7,5.5,7.7,5.5s21.2,0,28.2,0c7,0,5.8-7.6,5.8-7.6s-0.1-69.4,0-75.8c0.1-6.4-0.9-12.2-4.2-17.4
		c-3.3-5.2-14.4-18.1-14.4-18.1s11.1-2.9,15.2-4C398.2,206.2,401.9,202.9,401.9,198.2z M213.2,167.9c2.9-5.2,4.5-6.2,6.5-6.7
		c2-0.5,54.2-6.4,85.4-3.1c19,1.3,29.9,2,32.7,6.1c2.8,4.1,22.1,42.3,22.1,42.3s-32.8-5.7-86.6-4.8c-43.4,1.6-80.2,4.1-80.2,4.1
		S209,175.1,213.2,167.9z M205.4,256.1c-5,6.1-13.5,5.6-23.3,3.2c-11.2-2.8-11-13.8-10-19.7c3.7-16,25.4-6.8,25.4-6.8
		C212,239.6,208,252.6,205.4,256.1z M305.7,283.3h-58.1v-15.5h58.1V283.3z M380.3,239.7c1,5.9,1.1,16.9-10,19.7
		c-9.8,2.4-18.3,2.9-23.3-3.2c-2.5-3.5-6.6-16.5,7.9-23.3C354.9,232.8,376.6,223.7,380.3,239.7z"/>
</g>
</svg>
