<?xml version="1.0" encoding="utf-8"?>
<!-- Generator: Adobe Illustrator 22.1.0, SVG Export Plug-In . SVG Version: 6.00 Build 0)  -->
<svg version="1.1" id="Layer_1" xmlns="http://www.w3.org/2000/svg" xmlns:xlink="http://www.w3.org/1999/xlink" x="0px" y="0px"
	 viewBox="0 0 569 476" style="enable-background:new 0 0 569 476;" xml:space="preserve">
<style type="text/css">
	.st0{fill:#B3B3B3;}
	.st1{fill:#666666;}
</style>
<g>
	<path class="st0" d="M278,36.1c27.2,0,53.5,5.3,78.3,15.8C380.2,62,401.7,76.5,420.2,95c18.5,18.5,33,40,43.1,63.9
		c10.5,24.8,15.8,51.1,15.8,78.3c0,27.2-5.3,53.5-15.8,78.3c-10.1,23.9-24.6,45.5-43.1,63.9c-18.5,18.5-40,33-63.9,43.1
		c-24.8,10.5-51.1,15.8-78.3,15.8c-27.2,0-53.5-5.3-78.3-15.8c-23.9-10.1-45.5-24.6-63.9-43.1c-18.5-18.5-33-40-43.1-63.9
		c-10.5-24.8-15.8-51.1-15.8-78.3c0-27.2,5.3-53.5,15.8-78.3c10.1-23.9,24.6-45.5,43.1-63.9c18.5-18.5,40-33,63.9-43.1
		C224.5,41.4,250.8,36.1,278,36.1 M278,20.7c-119.6,0-216.5,96.9-216.5,216.5c0,119.6,96.9,216.5,216.5,216.5
		c119.6,0,216.5-96.9,216.5-216.5C494.5,117.6,397.5,20.7,278,20.7L278,20.7z"/>
	<path class="st1" d="M181.7,282.3v56c0,0-0.8,19.3,20,19.3c20.8,0,45.3,0,45.3,0V285c0,0,0-10.5,8.6-10.5c8.6,0,43,0,43,0
		s10.5-1,10.5,8.8c0,9.7,0,74.3,0,74.3h47.5c0,0,17.3-0.8,17.3-17.1c0-16.4,0-85,0-85s1.2-13.2,11.9-13.2c6.4,0,17.9,0.4,17.9-9.3
		c0-9.7-1.4-13.2-3.7-16.1c-2.3-2.9-111.5-96.3-111.5-96.3s-9.9-8.2-20.8,0c-10.9,8.2-110.9,95.9-110.9,95.9s-6.4,8.8-4.1,16.7
		c2.3,8,14.8,9.1,14.8,9.1s12.5,1.9,13.2,10.7C181.5,261.7,181.7,282.3,181.7,282.3z"/>
</g>
</svg>
