<?xml version="1.0" encoding="utf-8"?>
<!-- Generator: Adobe Illustrator 22.1.0, SVG Export Plug-In . SVG Version: 6.00 Build 0)  -->
<svg version="1.1" id="Layer_1" xmlns="http://www.w3.org/2000/svg" xmlns:xlink="http://www.w3.org/1999/xlink" x="0px" y="0px"
	 viewBox="0 0 569 476" style="enable-background:new 0 0 569 476;" xml:space="preserve">
<style type="text/css">
	.st0{fill:#FDB813;}
</style>
<g>
	<path class="st0" d="M276.6,37.7c110.5,0,200.3,89.9,200.3,200.3c0,110.5-89.9,200.3-200.3,200.3c-110.5,0-200.3-89.9-200.3-200.3
		C76.2,127.5,166.1,37.7,276.6,37.7 M276.6,22.3C157.5,22.3,60.9,118.9,60.9,238s96.6,215.7,215.7,215.7S492.3,357.1,492.3,238
		S395.7,22.3,276.6,22.3L276.6,22.3z"/>
	<path class="st0" d="M245.6,223.8c0,0-56.7,46.3-76.7,73.7c-8.1,12.4-9.3,20.8-6,23.7c2.6,2.3,5.5,0.3,7.1,0s79.3-52.6,79.3-52.6
		l10,63.5l-36.7,40.8l54.8-14.8l53,14.8l-36.7-40.6l9.7-64.6l80.7,53.8c0,0,10.3,0.7,7.4-10.8c-1.9-6.9-18.2-30.6-51.7-57.9
		c-25.6-22.6-33.9-29-33.9-29s15.1-71.7-29.7-120.7C267.5,112.4,237.4,150.2,245.6,223.8z"/>
</g>
</svg>
