<?xml version="1.0" encoding="UTF-8" standalone="no"?>
<!DOCTYPE svg PUBLIC "-//W3C//DTD SVG 1.1//EN" "http://www.w3.org/Graphics/SVG/1.1/DTD/svg11.dtd">
<svg width="100%" height="100%" viewBox="0 0 973 814" version="1.1" xmlns="http://www.w3.org/2000/svg" xmlns:xlink="http://www.w3.org/1999/xlink" xml:space="preserve" xmlns:serif="http://www.serif.com/" style="fill-rule:evenodd;clip-rule:evenodd;stroke-linejoin:round;stroke-miterlimit:2;">
    <g transform="matrix(1,0,0,1,-1180.123789,-685.468106)">
        <g>
            <g transform="matrix(0.410253,0,0,0.410253,1666.444854,1092.3026)">
                <g transform="matrix(1,0,0,1,-1185.416667,-991.666667)">
                    <g transform="matrix(4.166667,0,0,4.166667,0,0)">
                        <g opacity="0.99">
                            <path d="M86.4,315.5L35,315.5L24,290.5L24,254C24,254 44,233 86.4,225C128.9,217 163.8,213 163.8,213L272.2,164C272.2,164 305.7,155.5 348.6,157.5C391.6,159.5 450,169.5 480.5,185.5C511,201.5 523,208.5 543.9,206.5L543.4,251L551.9,282.5L540.4,315.5L491.3,315.5" style="fill:white;fill-rule:nonzero;"/>
                            <path d="M540.5,322.8L491.4,322.8C487.4,322.8 484.1,319.6 484.1,315.5C484.1,311.4 487.3,308.2 491.4,308.2L535.4,308.2L544.5,282.2L536.6,252.9C536.4,252.3 536.3,251.6 536.3,250.9L536.7,214.1C519.1,214 506.2,207.2 481.7,194.3L477.2,192C448.1,176.8 390.4,166.8 348.4,164.9C310.2,163.1 279.3,170 274.7,171L166.9,219.7C166.2,220 165.5,220.2 164.7,220.3C164.4,220.3 129.5,224.4 87.8,232.2C55.7,238.2 37.1,252.2 31.3,257.2L31.3,289L39.8,308.3L86.5,308.3C90.5,308.3 93.8,311.5 93.8,315.6C93.8,319.7 90.6,322.9 86.5,322.9L35,322.9C32.1,322.9 29.5,321.2 28.4,318.6L17.4,293.6C17,292.7 16.8,291.7 16.8,290.7L16.8,254.2C16.8,252.3 17.5,250.5 18.8,249.2C19.7,248.3 40.9,226.4 85.1,218.1C123.1,211 155.5,206.9 161.9,206.2L269.3,157.7C269.7,157.5 270.1,157.4 270.5,157.3C271.9,156.9 305.5,148.6 349,150.6C391.3,152.6 451.5,162.4 483.9,179.4L488.4,181.7C515.4,195.9 525.5,201.2 543.3,199.5C545.3,199.3 547.4,200 548.9,201.4C550.4,202.8 551.3,204.8 551.2,206.8L550.7,250.3L558.9,280.8C559.3,282.2 559.2,283.7 558.7,285.1L547.2,318.1C546.3,320.8 543.6,322.8 540.5,322.8Z" style="fill:rgb(146,148,151);fill-rule:nonzero;"/>
                        </g>
                        <g>
                            <path d="M397.1,315.5L178.1,315.5" style="fill:none;fill-rule:nonzero;"/>
                            <path d="M397.1,322.8L178.1,322.8C174.1,322.8 170.8,319.6 170.8,315.5C170.8,311.4 174,308.2 178.1,308.2L397.2,308.2C401.2,308.2 404.5,311.4 404.5,315.5C404.5,319.6 401.2,322.8 397.1,322.8Z" style="fill:rgb(146,148,151);fill-rule:nonzero;"/>
                        </g>
                        <g>
                            <path d="M418.6,240.9L181.8,240.9C179.7,240.9 177.7,240 176.4,238.4L158.4,217.9C155.8,214.9 156.1,210.3 159.1,207.7C162.1,205.1 166.7,205.4 169.3,208.4L185.1,226.4L415.7,226.4L468.3,176.9C471.2,174.2 475.8,174.3 478.5,177.2C481.2,180.1 481.1,184.7 478.2,187.4L423.5,238.8C422.2,240.1 420.5,240.9 418.6,240.9Z" style="fill:rgb(146,148,151);fill-rule:nonzero;"/>
                        </g>
                        <g>
                            <path d="M380.1,160.3L380.1,233.6" style="fill:none;fill-rule:nonzero;"/>
                            <path d="M380.1,240.9C376.1,240.9 372.8,237.7 372.8,233.6L372.8,160.3C372.8,156.3 376,153 380.1,153C384.2,153 387.4,156.2 387.4,160.3L387.4,233.6C387.4,237.6 384.2,240.9 380.1,240.9Z" style="fill:rgb(146,148,151);fill-rule:nonzero;"/>
                        </g>
                        <g>
                            <path d="M543.5,251.1L512,251.1" style="fill:none;fill-rule:nonzero;"/>
                            <path d="M543.5,258.3L512,258.3C508,258.3 504.7,255.1 504.7,251C504.7,246.9 507.9,243.7 512,243.7L543.5,243.7C547.5,243.7 550.8,246.9 550.8,251C550.8,255.1 547.5,258.3 543.5,258.3Z" style="fill:rgb(146,148,151);fill-rule:nonzero;"/>
                        </g>
                        <g>
                            <path d="M55.5,268.6L24,268.6" style="fill:none;fill-rule:nonzero;"/>
                            <path d="M55.5,275.8L24,275.8C20,275.8 16.7,272.6 16.7,268.5C16.7,264.4 19.9,261.2 24,261.2L55.5,261.2C59.5,261.2 62.8,264.4 62.8,268.5C62.8,272.6 59.5,275.8 55.5,275.8Z" style="fill:rgb(146,148,151);fill-rule:nonzero;"/>
                        </g>
                        <g>
                            <circle cx="132.4" cy="310.5" r="46" style="fill:white;"/>
                            <path d="M132.4,363.7C103.1,363.7 79.2,339.8 79.2,310.5C79.2,281.2 103.1,257.3 132.4,257.3C161.7,257.3 185.6,281.2 185.6,310.5C185.6,339.8 161.7,363.7 132.4,363.7ZM132.4,271.8C111.1,271.8 93.7,289.2 93.7,310.5C93.7,331.8 111.1,349.2 132.4,349.2C153.7,349.2 171.1,331.8 171.1,310.5C171.1,289.2 153.7,271.8 132.4,271.8Z" style="fill:rgb(146,148,151);fill-rule:nonzero;"/>
                        </g>
                        <g>
                            <path d="M491.4,310.5C491.4,335.9 470.8,356.5 445.4,356.5C420,356.5 399.4,335.9 399.4,310.5C399.4,285.1 420,264.5 445.4,264.5C470.8,264.6 491.4,285.1 491.4,310.5Z" style="fill:white;fill-rule:nonzero;"/>
                            <path d="M445.4,363.7C416.1,363.7 392.2,339.8 392.2,310.5C392.2,281.2 416.1,257.3 445.4,257.3C474.7,257.3 498.6,281.2 498.6,310.5C498.6,339.8 474.8,363.7 445.4,363.7ZM445.4,271.8C424.1,271.8 406.7,289.2 406.7,310.5C406.7,331.8 424.1,349.2 445.4,349.2C466.7,349.2 484.1,331.8 484.1,310.5C484.1,289.2 466.8,271.8 445.4,271.8Z" style="fill:rgb(146,148,151);fill-rule:nonzero;"/>
                        </g>
                    </g>
                </g>
            </g>
            <g transform="matrix(0.322323,0,0,0.322173,1655.259129,1160.637116)">
                <g transform="matrix(1,0,0,1,-1185.416667,-991.666667)">
                    <g transform="matrix(4.166667,0,0,4.166667,0,0)">
                        <g transform="matrix(1,0,0,1,-0.7,-4.5)">
                            <g>
                                <path d="M563,291.2C563,301.3 554.7,309.6 544.6,309.6L25.8,309.6C15.7,309.6 7.4,301.3 7.4,291.2L7.4,193.8C7.4,183.7 15.7,175.4 25.8,175.4L544.6,175.4C554.7,175.4 563,183.7 563,193.8L563,291.2Z" style="fill:rgb(253,184,19);fill-rule:nonzero;"/>
                            </g>
                            <g>
                                <path d="M90.6,267.1C85.8,267.1 81.5,266 77.8,263.7C74,261.4 71.1,258.2 69,254.1C66.9,249.9 65.8,245.1 65.8,239.5C65.8,233.9 66.9,229 69,224.8C71.1,220.6 74,217.4 77.8,215.1C81.5,212.8 85.8,211.7 90.6,211.7C94.2,211.7 97.5,212.4 100.5,213.7C103.5,215 106.1,216.8 108.3,219.2C109.3,220.3 109.6,221.4 109.3,222.6C108.9,223.7 108.3,224.6 107.3,225.2L106.9,225.4C106.2,225.8 105.3,226 104.1,225.9C102.9,225.8 101.8,225.3 100.8,224.3C99.5,223 98,222 96.3,221.3C94.6,220.6 92.7,220.3 90.7,220.3C87.6,220.3 84.8,221.1 82.5,222.7C80.1,224.3 78.3,226.5 77,229.4C75.7,232.3 75.1,235.7 75.1,239.6C75.1,243.4 75.7,246.8 77,249.7C78.3,252.6 80.1,254.8 82.5,256.4C84.9,258 87.6,258.8 90.7,258.8C94.7,258.8 98.1,257.5 100.8,254.8C101.8,253.8 102.8,253.3 103.9,253.1C105,252.9 106,253.1 106.9,253.6L107.1,253.8C108.2,254.3 108.9,255.1 109.3,256.3C109.7,257.5 109.5,258.6 108.5,259.7C106.3,262.1 103.7,264 100.6,265.3C97.5,266.4 94.2,267.1 90.6,267.1Z" style="fill:white;fill-rule:nonzero;"/>
                                <path d="M134.1,266.7C130.8,266.7 127.8,265.9 125.1,264.3C122.5,262.7 120.4,260.5 118.8,257.6C117.3,254.8 116.5,251.4 116.5,247.6C116.5,243.8 117.3,240.4 118.8,237.6C120.3,234.8 122.4,232.5 125.1,230.9C127.8,229.3 130.7,228.5 134.1,228.5C137.5,228.5 140.6,229.3 143.2,230.9C145.8,232.5 147.9,234.7 149.4,237.6C150.9,240.4 151.7,243.8 151.7,247.6C151.7,251.4 150.9,254.8 149.4,257.6C147.9,260.4 145.8,262.7 143.2,264.3C140.6,265.9 137.5,266.7 134.1,266.7ZM134.1,259C136.8,259 139,258 140.6,256C142.3,254 143.1,251.2 143.1,247.6C143.1,244 142.3,241.2 140.6,239.2C138.9,237.2 136.7,236.3 134.1,236.3C131.5,236.3 129.3,237.3 127.7,239.2C126,241.2 125.2,244 125.2,247.6C125.2,251.2 126,254 127.7,256C129.3,258 131.5,259 134.1,259Z" style="fill:white;fill-rule:nonzero;"/>
                                <path d="M163.3,265.9C160.4,265.9 159,264.4 159,261.4L159,234C159,231 160.3,229.5 162.8,229.5C165.3,229.5 166.7,230.2 166.8,231.5L167.1,233.9C167.8,232.4 169,231.1 170.6,230.1C172.3,229.1 174.2,228.6 176.3,228.6C178.7,228.6 180.7,229.2 182.5,230.3C184.3,231.4 185.6,233 186.6,235.1C187.6,233.2 189,231.7 190.8,230.5C192.6,229.3 194.7,228.7 197.1,228.7C200.7,228.7 203.6,229.9 205.8,232.4C208,234.9 209.1,238.4 209.1,242.9L209.1,261.4C209.1,264.4 207.7,265.9 204.9,265.9C202,265.9 200.5,264.4 200.5,261.4L200.5,244.8C200.5,242.1 200,240 199.1,238.5C198.1,237 196.8,236.2 195.1,236.2C192.9,236.2 191.3,237 190.1,238.5C188.9,240.1 188.3,242.3 188.3,245.1L188.3,261.2C188.3,264.2 186.9,265.7 184.1,265.7C181.2,265.7 179.8,264.2 179.8,261.2L179.8,244.6C179.8,241.9 179.3,239.8 178.3,238.3C177.3,236.8 175.9,236 174.2,236C172.1,236 170.5,236.8 169.3,238.4C168.1,240 167.6,242.2 167.6,245L167.6,261.1C167.6,264.4 166.2,265.9 163.3,265.9Z" style="fill:white;fill-rule:nonzero;"/>
                                <path d="M223.8,223.6C222.3,223.6 221.1,223.1 220,222C218.9,220.9 218.4,219.7 218.4,218.2C218.4,216.7 218.9,215.5 220,214.4C221.1,213.3 222.3,212.8 223.8,212.8C225.3,212.8 226.5,213.3 227.6,214.4C228.7,215.5 229.2,216.7 229.2,218.2C229.2,219.7 228.7,220.9 227.6,222C226.5,223 225.3,223.6 223.8,223.6ZM223.9,265.9C221.1,265.9 219.7,264.4 219.7,261.4L219.7,234C219.7,231 221.1,229.5 223.9,229.5C226.7,229.5 228.1,231 228.1,234L228.1,261.4C228.1,264.4 226.7,265.9 223.9,265.9Z" style="fill:white;fill-rule:nonzero;"/>
                                <path d="M242.7,265.9C239.8,265.9 238.4,264.4 238.4,261.4L238.4,234C238.4,231 239.7,229.5 242.2,229.5C244.8,229.5 246.1,230.2 246.2,231.5L246.4,233.8C247.4,232.4 248.8,231.2 250.4,230.1C252.1,229.1 254,228.6 256.3,228.6C260.1,228.6 263.2,229.8 265.6,232.2C268,234.6 269.2,238.2 269.2,242.9L269.2,261.4C269.2,264.4 267.8,265.9 265,265.9C262.1,265.9 260.7,264.4 260.7,261.4L260.7,244.9C260.7,242 260.1,239.9 259,238.4C257.8,237 256.3,236.2 254.3,236.2C252.1,236.2 250.4,236.9 249,238.4C247.6,239.9 247,242.1 247,245L247,261.3C246.9,264.4 245.5,265.9 242.7,265.9Z" style="fill:white;fill-rule:nonzero;"/>
                                <path d="M293.4,280.9C287.7,280.9 283.2,279.2 279.9,275.9C278.8,274.8 278.4,273.7 278.6,272.7C278.8,271.7 279.5,270.8 280.6,270.1C281.7,269.3 282.7,269.1 283.6,269.3C284.5,269.6 285.5,270.1 286.6,271C288.4,272.5 290.6,273.3 293.4,273.3C296.4,273.3 298.6,272.4 300,270.6C301.4,268.8 302.1,265.9 302.1,261.9L302.1,259.9C299.7,262.4 296.7,263.6 293.1,263.6C289.9,263.6 287.1,262.9 284.6,261.6C282.1,260.3 280.2,258.3 278.7,255.7C277.3,253.1 276.6,249.9 276.6,246.1C276.6,242.3 277.3,239.1 278.7,236.5C280.1,233.9 282.1,232 284.6,230.7C287.1,229.4 289.9,228.7 293.1,228.7C295.1,228.7 297,229.1 298.8,229.9C300.6,230.7 302.1,232.1 303.3,234.1L303.3,232.8C303.3,231.5 303.6,230.7 304.3,230.2C305,229.7 305.9,229.5 307,229.5C309.4,229.5 310.6,231 310.6,234L310.6,261.8C310.6,267.8 309.2,272.5 306.4,275.9C303.6,279.3 299.3,280.9 293.4,280.9ZM293.8,256C296.4,256 298.6,255.1 300.2,253.3C301.9,251.5 302.7,249.1 302.7,246C302.7,242.9 301.9,240.4 300.2,238.7C298.5,237 296.4,236.1 293.8,236.1C291.2,236.1 289.1,237 287.6,238.7C286.1,240.4 285.3,242.9 285.3,246C285.3,249.1 286.1,251.5 287.6,253.3C289.1,255.1 291.2,256 293.8,256Z" style="fill:white;fill-rule:nonzero;"/>
                                <path d="M360.9,266.9C357.2,266.9 353.7,266.3 350.5,265C347.3,263.7 344.5,261.6 342.2,258.5C341.3,257.3 341,256.2 341.3,255.1C341.6,254.1 342.3,253.2 343.5,252.6C344.7,251.9 345.7,251.7 346.7,252C347.7,252.3 348.6,252.9 349.6,254C351,255.5 352.6,256.6 354.5,257.4C356.4,258.2 358.6,258.6 361.3,258.6C364.8,258.6 367.3,258 368.7,256.7C370.1,255.4 370.9,253.7 370.9,251.5C370.9,250.1 370.6,248.9 370,247.9C369.4,246.9 368.1,245.9 366.1,245.1C364.1,244.2 361,243.3 356.9,242.4C352,241.2 348.4,239.4 346.1,236.9C343.8,234.4 342.6,231.2 342.6,227.3C342.6,224.2 343.3,221.5 344.8,219.2C346.3,216.9 348.4,215 351.1,213.7C353.8,212.4 357,211.7 360.6,211.7C364.4,211.7 367.7,212.4 370.5,213.7C373.3,215 375.7,216.7 377.6,218.8C378.6,219.9 378.9,220.9 378.7,222C378.5,223.1 377.8,224 376.7,224.9C375.6,225.8 374.5,226.2 373.5,226C372.5,225.8 371.5,225.2 370.5,224.3C369.2,223.1 367.8,222.2 366.2,221.4C364.6,220.6 362.7,220.3 360.5,220.3C357.9,220.3 355.8,220.9 354.1,222C352.5,223.1 351.6,224.8 351.6,227.1C351.6,228.1 351.8,229.1 352.3,230C352.8,230.9 353.8,231.8 355.5,232.7C357.1,233.6 359.7,234.4 363.1,235.2C369.1,236.6 373.5,238.6 376.2,241.3C378.9,244 380.2,247.5 380.2,251.6C380.2,256.6 378.5,260.5 375,263.2C371.3,265.6 366.6,266.9 360.9,266.9Z" style="fill:white;fill-rule:nonzero;"/>
                                <path d="M403.8,266.7C400.5,266.7 397.5,265.9 394.8,264.3C392.2,262.7 390.1,260.5 388.5,257.6C387,254.8 386.2,251.4 386.2,247.6C386.2,243.8 387,240.4 388.5,237.6C390,234.8 392.1,232.5 394.8,230.9C397.4,229.3 400.4,228.5 403.8,228.5C407.2,228.5 410.3,229.3 412.9,230.9C415.5,232.5 417.6,234.7 419.1,237.6C420.6,240.4 421.4,243.8 421.4,247.6C421.4,251.4 420.6,254.8 419.1,257.6C417.6,260.4 415.5,262.7 412.9,264.3C410.3,265.9 407.3,266.7 403.8,266.7ZM403.8,259C406.5,259 408.7,258 410.3,256C412,254 412.8,251.2 412.8,247.6C412.8,244 412,241.2 410.3,239.2C408.6,237.2 406.4,236.3 403.8,236.3C401.2,236.3 399,237.3 397.4,239.2C395.7,241.2 394.9,244 394.9,247.6C394.9,251.2 395.7,254 397.4,256C399.1,258 401.2,259 403.8,259Z" style="fill:white;fill-rule:nonzero;"/>
                                <path d="M444.4,266.7C441.1,266.7 438.1,265.9 435.4,264.3C432.8,262.7 430.7,260.5 429.1,257.6C427.6,254.8 426.8,251.4 426.8,247.6C426.8,243.8 427.6,240.4 429.1,237.6C430.6,234.8 432.7,232.5 435.4,230.9C438,229.3 441,228.5 444.4,228.5C447.8,228.5 450.9,229.3 453.5,230.9C456.1,232.5 458.2,234.7 459.7,237.6C461.2,240.4 462,243.8 462,247.6C462,251.4 461.2,254.8 459.7,257.6C458.2,260.4 456.1,262.7 453.5,264.3C450.9,265.9 447.8,266.7 444.4,266.7ZM444.4,259C447.1,259 449.3,258 450.9,256C452.6,254 453.4,251.2 453.4,247.6C453.4,244 452.6,241.2 450.9,239.2C449.2,237.2 447,236.3 444.4,236.3C441.8,236.3 439.6,237.3 438,239.2C436.3,241.2 435.5,244 435.5,247.6C435.5,251.2 436.3,254 438,256C439.7,258 441.8,259 444.4,259Z" style="fill:white;fill-rule:nonzero;"/>
                                <path d="M473.7,265.9C470.8,265.9 469.4,264.4 469.4,261.4L469.4,234C469.4,231 470.7,229.5 473.2,229.5C475.8,229.5 477.1,230.2 477.2,231.5L477.4,233.8C478.4,232.4 479.8,231.2 481.4,230.1C483.1,229.1 485,228.6 487.3,228.6C491.1,228.6 494.2,229.8 496.6,232.2C499,234.6 500.2,238.2 500.2,242.9L500.2,261.4C500.2,264.4 498.8,265.9 496,265.9C493.1,265.9 491.7,264.4 491.7,261.4L491.7,244.9C491.7,242 491.1,239.9 490,238.4C488.8,237 487.3,236.2 485.3,236.2C483.1,236.2 481.4,236.9 480,238.4C478.6,239.9 478,242.1 478,245L478,261.3C477.9,264.4 476.5,265.9 473.7,265.9Z" style="fill:white;fill-rule:nonzero;"/>
                            </g>
                        </g>
                    </g>
                </g>
            </g>
        </g>
    </g>
</svg>
