<svg width="40" height="40" viewBox="0 0 40 40" fill="none" xmlns="http://www.w3.org/2000/svg">
<path d="M7.26365 26.5664H32.4469L34.7389 35.4247H5L7.26365 26.5664Z" fill="#FFF1D0"/>
<path d="M9.41506 4.17927C9.41506 4.17927 8.59449 16.9432 19.6581 24.613C22.0067 23.2545 30.1559 17.764 30.071 4.17927C28.7411 4.49059 23.6479 4.77355 19.8562 2C18.4697 2.84904 14.0839 5.50944 9.41506 4.17927Z" stroke="#343434" stroke-width="0.7" stroke-linecap="round" stroke-linejoin="round"/>
<path d="M24.5804 8.28418H14.79V17.8219H24.5804V8.28418Z" fill="#FDB813"/>
<path d="M18.3545 15.245H21.4387L20.8728 13.2922C20.8728 13.2922 21.3255 12.8393 21.2972 12.0752C21.2972 11.7922 20.986 10.5752 19.7975 10.5752C19.6561 10.5752 18.3262 10.7733 18.3262 12.0186C18.3262 12.2733 18.3262 12.811 18.9204 13.2639C18.694 14.3676 18.3828 15.245 18.3828 15.245H18.3545Z" fill="white" stroke="#343434" stroke-width="0.42" stroke-linecap="round" stroke-linejoin="round"/>
<path d="M17.5631 8.28255V6.61277C17.5631 6.61277 17.3933 4.46191 19.8268 4.46191C20.4493 4.46191 22.0338 5.11282 22.0338 6.6411V8.28255" stroke="#343434" stroke-width="0.7" stroke-linecap="round" stroke-linejoin="round"/>
<path d="M7.26365 26.5664H32.4469L34.7389 35.4247H5L7.26365 26.5664Z" stroke="#343434" stroke-width="0.7" stroke-linecap="round" stroke-linejoin="round"/>
<path d="M5 35.4248V38.0003H34.7389V35.4248" stroke="#343434" stroke-width="0.7" stroke-linecap="round" stroke-linejoin="round"/>
<path d="M7.26489 26.5648V13.8008C7.26489 13.8008 7.18002 12.3574 8.42503 12.3574H10.6321" stroke="#343434" stroke-width="0.7" stroke-linecap="round" stroke-linejoin="round"/>
<path d="M32.4472 26.5648V13.9423C32.4472 13.9423 32.6169 12.3574 31.2588 12.3574H28.9668" stroke="#343434" stroke-width="0.7" stroke-linecap="round" stroke-linejoin="round"/>
<path d="M11.9053 29.3666H8.96253C8.73616 29.3666 8.53809 29.1685 8.53809 28.9421C8.53809 28.7157 8.73616 28.5176 8.96253 28.5176H11.9053C12.1316 28.5176 12.3297 28.7157 12.3297 28.9421C12.3297 29.1685 12.1316 29.3666 11.9053 29.3666Z" fill="#FDB813"/>
<path d="M30.8613 29.3666H27.9186C27.6922 29.3666 27.4941 29.1685 27.4941 28.9421C27.4941 28.7157 27.6922 28.5176 27.9186 28.5176H30.8613C31.0877 28.5176 31.2858 28.7157 31.2858 28.9421C31.2858 29.1685 31.0877 29.3666 30.8613 29.3666Z" fill="#FDB813"/>
<path d="M15.4979 29.3666H13.4889C13.2625 29.3666 13.0645 29.1685 13.0645 28.9421C13.0645 28.7157 13.2625 28.5176 13.4889 28.5176H15.4979C15.7243 28.5176 15.9223 28.7157 15.9223 28.9421C15.9223 29.1685 15.7243 29.3666 15.4979 29.3666Z" fill="#FDB813"/>
<path d="M13.9139 31.4331H11.9049C11.6785 31.4331 11.4805 31.2349 11.4805 31.0085C11.4805 30.7821 11.6785 30.584 11.9049 30.584H13.9139C14.1403 30.584 14.3383 30.7821 14.3383 31.0085C14.3383 31.2349 14.1403 31.4331 13.9139 31.4331Z" fill="#FDB813"/>
<path d="M10.4051 31.4331H8.39612C8.16975 31.4331 7.97168 31.2349 7.97168 31.0085C7.97168 30.7821 8.16975 30.584 8.39612 30.584H10.4051C10.6315 30.584 10.8296 30.7821 10.8296 31.0085C10.8296 31.2349 10.6315 31.4331 10.4051 31.4331Z" fill="#FDB813"/>
<path d="M17.2801 31.4331H15.2711C15.0448 31.4331 14.8467 31.2349 14.8467 31.0085C14.8467 30.7821 15.0448 30.584 15.2711 30.584H17.2801C17.5065 30.584 17.7046 30.7821 17.7046 31.0085C17.7046 31.2349 17.5065 31.4331 17.2801 31.4331Z" fill="#FDB813"/>
<path d="M20.8748 31.4331H18.8658C18.6395 31.4331 18.4414 31.2349 18.4414 31.0085C18.4414 30.7821 18.6395 30.584 18.8658 30.584H20.8748C21.1012 30.584 21.2993 30.7821 21.2993 31.0085C21.2993 31.2349 21.1012 31.4331 20.8748 31.4331Z" fill="#FDB813"/>
<path d="M24.5818 31.4331H22.5729C22.3465 31.4331 22.1484 31.2349 22.1484 31.0085C22.1484 30.7821 22.3465 30.584 22.5729 30.584H24.5818C24.8082 30.584 25.0063 30.7821 25.0063 31.0085C25.0063 31.2349 24.8082 31.4331 24.5818 31.4331Z" fill="#FDB813"/>
<path d="M27.9198 31.4331H25.9107C25.6844 31.4331 25.4863 31.2349 25.4863 31.0085C25.4863 30.7821 25.6844 30.584 25.9107 30.584H27.9198C28.1461 30.584 28.3442 30.7821 28.3442 31.0085C28.3442 31.2349 28.1461 31.4331 27.9198 31.4331Z" fill="#FDB813"/>
<path d="M31.7108 31.4331H29.7018C29.4754 31.4331 29.2773 31.2349 29.2773 31.0085C29.2773 30.7821 29.4754 30.584 29.7018 30.584H31.7108C31.9372 30.584 32.1352 30.7821 32.1352 31.0085C32.1352 31.2349 31.9372 31.4331 31.7108 31.4331Z" fill="#FDB813"/>
<path d="M27.9198 33.6401H25.9107C25.6844 33.6401 25.4863 33.4419 25.4863 33.2155C25.4863 32.9891 25.6844 32.791 25.9107 32.791H27.9198C28.1461 32.791 28.3442 32.9891 28.3442 33.2155C28.3442 33.4419 28.1461 33.6401 27.9198 33.6401Z" fill="#FDB813"/>
<path d="M13.4881 33.6401H11.4791C11.2528 33.6401 11.0547 33.4419 11.0547 33.2155C11.0547 32.9891 11.2528 32.791 11.4791 32.791H13.4881C13.7145 32.791 13.9126 32.9891 13.9126 33.2155C13.9126 33.4419 13.7145 33.6401 13.4881 33.6401Z" fill="#FDB813"/>
<path d="M19.0633 29.3666H17.0543C16.8279 29.3666 16.6299 29.1685 16.6299 28.9421C16.6299 28.7157 16.8279 28.5176 17.0543 28.5176H19.0633C19.2897 28.5176 19.4877 28.7157 19.4877 28.9421C19.4877 29.1685 19.2897 29.3666 19.0633 29.3666Z" fill="#FDB813"/>
<path d="M22.6004 29.3666H20.5914C20.365 29.3666 20.167 29.1685 20.167 28.9421C20.167 28.7157 20.365 28.5176 20.5914 28.5176H22.6004C22.8268 28.5176 23.0249 28.7157 23.0249 28.9421C23.0249 29.1685 22.8268 29.3666 22.6004 29.3666Z" fill="#FDB813"/>
<path d="M26.1942 29.3666H24.1852C23.9588 29.3666 23.7607 29.1685 23.7607 28.9421C23.7607 28.7157 23.9588 28.5176 24.1852 28.5176H26.1942C26.4205 28.5176 26.6186 28.7157 26.6186 28.9421C26.6186 29.1685 26.4205 29.3666 26.1942 29.3666Z" fill="#FDB813"/>
<path d="M16.2617 35.4239L16.6579 32.7354H22.9396L23.1659 35.4239H16.2617Z" fill="white" stroke="#343434" stroke-width="0.7" stroke-linecap="round" stroke-linejoin="round"/>
<path d="M24.5804 8.28418H14.79V17.8219H24.5804V8.28418Z" stroke="#343434" stroke-width="0.7" stroke-linecap="round" stroke-linejoin="round"/>
</svg>
