<svg width="20" height="20" viewBox="0 0 20 20" fill="none" xmlns="http://www.w3.org/2000/svg">
<path d="M15.4829 18.7711H4.69021C2.82773 18.7711 1.3125 17.2559 1.3125 15.3934V4.63455C1.3125 2.77207 2.82773 1.25684 4.69021 1.25684H10.886C11.162 1.25684 11.3857 1.48054 11.3857 1.7565C11.3857 2.03245 11.162 2.25616 10.886 2.25616H4.69021C3.37876 2.25616 2.31182 3.3231 2.31182 4.63455V15.3934C2.31182 16.7048 3.37876 17.7718 4.69021 17.7718H15.4829C16.7943 17.7718 17.8613 16.7048 17.8613 15.3934V9.75681C17.8613 9.48086 18.085 9.25715 18.3609 9.25715C18.6369 9.25715 18.8606 9.48086 18.8606 9.75681V15.3934C18.8606 17.2558 17.3454 18.7711 15.4829 18.7711Z" fill="#FDB813"/>
<path d="M9.38698 14.4593L6.39273 14.4732C6.11678 14.4732 5.89307 14.2495 5.89307 13.9735V10.9383C5.89306 10.8065 5.94515 10.68 6.03799 10.5864L15.8713 0.673183C16.0625 0.480414 16.3726 0.475617 16.5697 0.662331L19.524 3.56368C19.5721 3.60924 19.6106 3.66391 19.6374 3.7245C19.6641 3.78509 19.6786 3.8504 19.6799 3.91663C19.6812 3.98286 19.6693 4.04869 19.6449 4.11029C19.6206 4.17188 19.5842 4.22801 19.5379 4.27542L9.74456 14.3086C9.69801 14.3563 9.64239 14.3942 9.58098 14.4201C9.51958 14.4459 9.45361 14.4593 9.38698 14.4593ZM6.89241 13.4739L9.17648 13.4599L18.4685 3.94033L16.2369 1.72361L6.89241 11.1441V13.4739Z" fill="#FDB813"/>
</svg>
