<svg width="40" height="40" viewBox="0 0 40 40" fill="none" xmlns="http://www.w3.org/2000/svg">
<path d="M1.41016 14.378L2.93071 16.7954L19.3935 7.18379L36.2949 16.7954L37.8447 14.2614L19.6274 3.71777L1.41016 14.378Z" fill="#FDB813" stroke="#343434" stroke-width="0.7" stroke-linecap="round" stroke-linejoin="round"/>
<path d="M2.08301 34.7954H11.0893C11.0893 34.7954 12.8437 34.3876 12.756 33.31C12.6683 32.407 12.025 31.708 11.0308 31.9119C11.4109 31.2711 10.2121 28.9119 8.34062 30.5139C8.04821 29.9605 6.35219 28.4167 5.47495 30.5429C5.06557 30.106 2.25846 29.2032 2.6386 31.5042C1.49819 31.8828 -0.0808547 33.7469 2.11223 34.7954H2.08301Z" fill="#FDB813" stroke="#343434" stroke-width="0.7" stroke-linecap="round" stroke-linejoin="round"/>
<path d="M2.08203 34.7959V37.9997H11.0883V34.7959" stroke="#343434" stroke-width="0.7" stroke-linecap="round" stroke-linejoin="round"/>
<path d="M27.9609 34.7954H36.9672C36.9672 34.7954 38.7217 34.3876 38.634 33.31C38.5462 32.407 37.9029 31.708 36.9087 31.9119C37.2888 31.2711 36.0899 28.9119 34.2185 30.5139C33.9261 29.9605 32.2301 28.4167 31.3529 30.5429C30.9435 30.106 28.1364 29.2032 28.5165 31.5042C27.3761 31.8828 25.7971 33.7469 27.9902 34.7954H27.9609Z" fill="#FDB813" stroke="#343434" stroke-width="0.7" stroke-linecap="round" stroke-linejoin="round"/>
<path d="M27.9609 34.7959V37.9997H36.9672V34.7959" stroke="#343434" stroke-width="0.7" stroke-linecap="round" stroke-linejoin="round"/>
<path d="M4.18652 16.0684V30.0198" stroke="#343434" stroke-width="0.7" stroke-linecap="round" stroke-linejoin="round"/>
<path d="M35.0078 16.0684V29.9616" stroke="#343434" stroke-width="0.7" stroke-linecap="round" stroke-linejoin="round"/>
<path d="M1 38H38.0778" stroke="#343434" stroke-width="0.7" stroke-linecap="round" stroke-linejoin="round"/>
<path d="M23.2525 37.9997V21.1357H15.8545V37.9997" stroke="#343434" stroke-width="0.7" stroke-linecap="round" stroke-linejoin="round"/>
<path d="M31.8212 2H25.5928V4.41743H31.8212V2Z" fill="#FDB813" stroke="#343434" stroke-width="0.7" stroke-linecap="round" stroke-linejoin="round"/>
<path d="M31.1191 4.38867V10.243" stroke="#343434" stroke-width="0.7" stroke-linecap="round" stroke-linejoin="round"/>
<path d="M26.2939 4.38867V7.67985" stroke="#343434" stroke-width="0.7" stroke-linecap="round" stroke-linejoin="round"/>
<path d="M12.316 21.1357H7.49121V25.9415H12.316V21.1357Z" stroke="#343434" stroke-width="0.7" stroke-linecap="round" stroke-linejoin="round"/>
<path d="M31.5572 21.1357H26.7324V25.9415H31.5572V21.1357Z" stroke="#343434" stroke-width="0.7" stroke-linecap="round" stroke-linejoin="round"/>
<path d="M21.7615 15.3988C21.7615 16.8551 20.5918 18.0201 19.1298 18.0201C17.6677 18.0201 16.498 16.8551 16.498 15.3988C16.498 13.9425 17.6677 12.7773 19.1298 12.7773C20.5918 12.7773 21.7615 13.9425 21.7615 15.3988Z" stroke="#343434" stroke-width="0.7" stroke-linecap="round" stroke-linejoin="round"/>
</svg>
