<svg width="40" height="40" viewBox="0 0 40 40" fill="none" xmlns="http://www.w3.org/2000/svg">
<g clip-path="url(#clip0_3545_5688)">
<path d="M15.1632 13.7848C13.6986 13.7848 12.527 13.096 11.7511 11.766C11.0465 10.5627 10.7932 9.02685 10.6586 7.97394C10.6586 7.96602 10.6586 7.96602 10.6586 7.9581C10.3974 5.47227 11.2682 4.02352 12.052 3.24769C12.899 2.40852 13.8015 2.1631 13.9045 2.13935C13.9124 2.13935 13.9203 2.13935 13.9203 2.13144C14.799 1.94144 15.6224 2.09977 16.3824 2.60644C18.0211 3.70685 18.8524 6.22435 19.0899 7.54644C19.0899 7.57019 19.0978 7.58602 19.0978 7.60977C19.2403 9.31977 18.9157 10.816 18.1636 11.956C17.5699 12.8506 16.7228 13.4998 15.8361 13.7373C15.8045 13.7452 15.7728 13.7531 15.7411 13.7531C15.5353 13.7689 15.3453 13.7848 15.1632 13.7848ZM11.9965 7.8156C12.424 11.2039 13.5086 12.621 15.5274 12.4231C16.4378 12.1539 18.0053 10.8556 17.752 7.75227C17.5303 6.54894 16.794 4.51435 15.6303 3.7306C15.1949 3.43769 14.7278 3.34269 14.2211 3.45352C14.0311 3.50102 11.6245 4.26102 11.9965 7.8156Z" fill="#929497"/>
<path d="M24.8061 13.8327C24.5369 13.8327 24.3311 13.801 24.2124 13.7852C24.1886 13.7852 24.1728 13.7773 24.1569 13.7773C24.1253 13.7773 24.1015 13.7694 24.0698 13.7614C22.914 13.5081 22.0273 12.8669 21.4257 11.8456C20.2619 9.86644 20.5865 6.97686 20.8399 6.12978C21.4336 4.01603 22.3994 2.68603 23.6978 2.15561C25.2415 1.53811 26.6269 2.32978 26.6823 2.36936C26.6903 2.36936 26.6903 2.37728 26.6982 2.37728C28.0361 3.20853 28.8357 4.45936 29.089 6.09019C29.279 7.34894 29.0811 8.48103 28.994 8.96394L28.9861 8.98769V8.99561C28.5665 11.1727 27.7432 12.6373 26.5399 13.3498C25.8986 13.7456 25.2653 13.8327 24.8061 13.8327ZM24.3232 12.4473C24.3469 12.4473 24.3707 12.4552 24.3944 12.4552C24.6478 12.4869 25.2415 12.5739 25.859 12.2098C26.7061 11.711 27.3315 10.5156 27.6719 8.75811V8.74228C28.1232 6.23269 27.5769 4.53061 26.0094 3.54894C25.9303 3.50936 25.0753 3.06603 24.1965 3.43019C23.3178 3.79436 22.6053 4.85519 22.1382 6.51769V6.52561C21.964 7.08769 21.6632 9.58144 22.5973 11.1727C22.9853 11.8535 23.5553 12.2731 24.3232 12.4473Z" fill="#929497"/>
<path d="M31.9544 19.9997C31.5744 19.9997 31.2657 19.9285 31.0757 19.8493C28.2257 18.7568 28.6453 14.7985 28.8432 13.611C28.8432 13.603 28.8432 13.5872 28.8511 13.5793C29.2153 11.9089 29.9436 10.7135 31.0123 10.0326C32.3344 9.18554 33.6723 9.47054 33.7278 9.48638C33.7357 9.48638 33.7436 9.48638 33.7515 9.49429C34.6461 9.72388 35.3348 10.2622 35.8019 11.0855C36.8073 12.8589 36.3957 15.3843 36.269 15.8197C35.5803 18.2739 34.3294 19.2793 33.3953 19.691C32.8728 19.9126 32.374 19.9997 31.9544 19.9997ZM31.6219 18.6143C31.7407 18.6539 32.3028 18.733 32.9678 18.3926C33.8623 17.9414 34.559 16.9201 34.9707 15.4397V15.4318C35.0419 15.1785 35.3823 13.0568 34.6303 11.7268C34.3532 11.236 33.9573 10.9272 33.4348 10.7847C33.3478 10.7689 32.7461 10.6818 32.089 10.9668C31.1469 11.3705 30.4978 12.3364 30.1653 13.8405C30.0465 14.5451 29.619 17.8622 31.5665 18.5905C31.5823 18.5985 31.6061 18.6064 31.6219 18.6143Z" fill="#929497"/>
<path d="M7.46837 19.96C6.96962 19.96 6.4867 19.8413 6.03545 19.6038C4.23045 18.6696 3.58128 16.2155 3.51003 15.9384C3.51003 15.9225 3.50212 15.9146 3.50212 15.8988C3.07462 13.6346 3.32795 11.885 4.23045 10.6896C4.90337 9.80295 5.71879 9.55753 5.90087 9.51795C8.18087 8.86878 9.81962 10.9113 10.5875 13.0409C10.6034 13.0725 10.6113 13.1121 10.6192 13.1438C11.2684 16.6746 10.73 18.733 8.91712 19.6434C8.90128 19.6513 8.88545 19.6592 8.8617 19.6671C8.3867 19.865 7.91962 19.96 7.46837 19.96ZM4.8242 15.6375C5.02212 16.4292 5.62379 17.878 6.65295 18.4163C7.15962 18.6775 7.71379 18.6855 8.34712 18.44C8.80628 18.2105 10.0413 17.498 9.30503 13.4605C9.0042 12.653 7.97504 10.3334 6.25712 10.8321C6.23337 10.84 6.23337 10.84 6.21754 10.84C6.07504 10.8717 4.05628 11.4971 4.8242 15.6375Z" fill="#929497"/>
<path d="M26.3658 37.1712C25.9304 37.1712 25.4791 37.1237 25.0121 37.0287C24.6716 36.9654 24.3629 36.91 24.0779 36.8546C22.1462 36.4904 21.4258 36.3479 19.89 36.34C18.1246 36.4112 17.7366 36.4825 16.1216 36.7991C15.7812 36.8625 15.3854 36.9416 14.9104 37.0287C14.4433 37.1316 13.9921 37.1712 13.5566 37.1712C9.93873 37.1712 7.42914 34.0679 6.77998 32.8408C6.76414 32.8091 6.74831 32.7775 6.74039 32.7537C5.31539 28.7321 5.95664 25.0983 8.53748 22.5175L8.55331 22.5016C8.73539 22.3196 8.98873 22.0979 9.30539 21.8208C10.1129 21.1083 11.3321 20.0396 12.1475 18.8996C12.1554 18.8837 12.1712 18.8679 12.1791 18.86C15.6941 14.6641 19.6683 14.6087 19.9612 14.6166C20.2541 14.6166 24.2283 14.6641 27.7433 18.86C27.7512 18.8758 27.7671 18.8837 27.775 18.8996C28.5825 20.0396 29.8096 21.1083 30.6171 21.8208C30.9337 22.0979 31.1871 22.3196 31.3691 22.5016L31.385 22.5175C33.9658 25.0983 34.6071 28.7321 33.1821 32.7537C33.1741 32.7854 33.1583 32.8171 33.1425 32.8408C32.4933 34.0758 29.9837 37.1712 26.3658 37.1712ZM19.8741 34.9941C21.5446 35.0021 22.36 35.1525 24.3233 35.5325C24.6083 35.5879 24.9171 35.6433 25.2575 35.7066C25.2654 35.7066 25.2654 35.7066 25.2733 35.7066C26.825 36.0391 28.3291 35.675 29.7621 34.6221C30.91 33.775 31.6621 32.73 31.9312 32.255C33.1662 28.7241 32.6516 25.6841 30.435 23.4675L30.4191 23.4516C30.2687 23.3012 30.0154 23.0796 29.7304 22.8262C28.8833 22.0821 27.6008 20.9579 26.6983 19.6991C23.5633 15.9625 20.1196 15.9466 19.9691 15.9546C19.9612 15.9546 19.9533 15.9546 19.9454 15.9546H19.9375C19.7 15.9546 16.3196 16.0179 13.2241 19.6991C12.3216 20.9579 11.0391 22.0821 10.1921 22.8262C9.90706 23.0796 9.65373 23.3012 9.50331 23.4516L9.48748 23.4675C7.27081 25.6841 6.74831 28.7241 7.99123 32.255C8.25248 32.73 9.01248 33.7829 10.1604 34.6221C11.5854 35.675 13.0975 36.0391 14.6491 35.7066C14.6571 35.7066 14.6571 35.7066 14.665 35.7066C15.14 35.6196 15.5358 35.5404 15.8762 35.4771C17.5308 35.1604 17.9741 35.0733 19.8583 34.9941C19.8583 34.9941 19.8662 34.9941 19.8741 34.9941Z" fill="#929497"/>
<path d="M19.961 33.5612C19.858 33.5612 19.7551 33.5374 19.6601 33.4899C19.5651 33.4424 19.486 33.3791 19.4305 33.292C18.7497 32.8249 16.0897 30.9882 14.9497 29.9432C14.9418 29.9353 14.9339 29.9274 14.926 29.9195C13.4455 28.4153 12.9864 26.7766 12.8676 25.6603C12.7251 24.3303 12.9943 23.0795 13.5722 22.4145L13.5801 22.4066C14.538 21.3378 15.6147 20.8153 16.7785 20.847C18.148 20.8866 19.2643 21.702 19.8897 22.2641C20.523 21.6862 21.6868 20.8391 23.096 20.8074C24.2597 20.7837 25.3285 21.3062 26.2785 22.3591L26.2864 22.367C26.8643 23.0399 27.1335 24.2828 26.991 25.6128C26.8722 26.7212 26.413 28.3599 24.9326 29.872C24.9247 29.8799 24.9168 29.8878 24.9089 29.8957C23.6185 31.0753 20.4993 33.3316 20.3726 33.4266C20.238 33.5137 20.0955 33.5612 19.961 33.5612ZM15.8601 28.9616C16.8497 29.8641 19.098 31.4395 19.9768 32.0412C20.8714 31.3841 23.001 29.8087 23.9668 28.922C26.0964 26.7449 25.8351 23.9345 25.2572 23.2616C24.5843 22.5174 23.8639 22.1453 23.1118 22.1612C21.6314 22.1928 20.4043 23.6495 20.3885 23.6653C20.2618 23.8157 20.0718 23.9107 19.8739 23.9107C19.8739 23.9107 19.8739 23.9107 19.866 23.9107C19.668 23.9107 19.4701 23.8157 19.3435 23.6653C19.3355 23.6495 18.156 22.2403 16.7151 22.2007C15.971 22.1849 15.2426 22.557 14.5618 23.3091C13.9997 23.982 13.7385 26.7845 15.8601 28.9616Z" fill="#929497"/>
<path d="M38.1687 25.8904C38.1687 26.5554 37.6225 27.1016 36.9575 27.1016H2.805C2.14 27.1016 1.59375 26.5554 1.59375 25.8904V19.4779C1.59375 18.8129 2.14 18.2666 2.805 18.2666H36.9654C37.6304 18.2666 38.1767 18.8129 38.1767 19.4779V25.8904H38.1687Z" fill="#FDB813"/>
<path d="M6.8952 25.037C6.57853 25.037 6.2952 24.962 6.0452 24.812C5.79853 24.662 5.6052 24.4504 5.4652 24.177C5.3252 23.9004 5.2552 23.577 5.2552 23.207C5.2552 22.8337 5.3252 22.5104 5.4652 22.237C5.6052 21.9604 5.79853 21.747 6.0452 21.597C6.2952 21.4437 6.57853 21.367 6.8952 21.367C7.13186 21.367 7.34853 21.4104 7.5452 21.497C7.7452 21.5837 7.91853 21.7054 8.0652 21.862C8.13186 21.9354 8.15353 22.0104 8.1302 22.087C8.10686 22.1604 8.06186 22.217 7.9952 22.257L7.9702 22.272C7.92686 22.2987 7.8652 22.3087 7.7852 22.302C7.7052 22.2954 7.63186 22.2604 7.5652 22.197C7.47853 22.1104 7.37853 22.0454 7.2652 22.002C7.1552 21.9554 7.03186 21.932 6.8952 21.932C6.68853 21.932 6.50686 21.9854 6.3502 22.092C6.19353 22.1954 6.07186 22.3437 5.9852 22.537C5.90186 22.727 5.8602 22.9504 5.8602 23.207C5.8602 23.4604 5.90186 23.6837 5.9852 23.877C6.07186 24.067 6.19353 24.2154 6.3502 24.322C6.50686 24.4254 6.68853 24.477 6.8952 24.477C7.15853 24.477 7.38186 24.3887 7.5652 24.212C7.63186 24.1487 7.7002 24.112 7.7702 24.102C7.8402 24.092 7.90686 24.102 7.9702 24.132L7.9802 24.142C8.0502 24.1754 8.09853 24.232 8.1252 24.312C8.1552 24.3887 8.13853 24.4637 8.0752 24.537C7.92853 24.697 7.7552 24.8204 7.5552 24.907C7.3552 24.9937 7.1352 25.037 6.8952 25.037ZM9.77457 25.012C9.55457 25.012 9.35624 24.9604 9.17957 24.857C9.00624 24.7504 8.8679 24.6037 8.76457 24.417C8.66457 24.227 8.61457 24.0054 8.61457 23.752C8.61457 23.4987 8.66457 23.2787 8.76457 23.092C8.8679 22.902 9.00624 22.7554 9.17957 22.652C9.35624 22.5454 9.55457 22.492 9.77457 22.492C10.0012 22.492 10.2012 22.5454 10.3746 22.652C10.5512 22.7554 10.6896 22.902 10.7896 23.092C10.8896 23.2787 10.9396 23.4987 10.9396 23.752C10.9396 24.0054 10.8896 24.227 10.7896 24.417C10.6896 24.6037 10.5512 24.7504 10.3746 24.857C10.2012 24.9604 10.0012 25.012 9.77457 25.012ZM9.77457 24.502C9.95124 24.502 10.0946 24.437 10.2046 24.307C10.3179 24.177 10.3746 23.992 10.3746 23.752C10.3746 23.512 10.3179 23.327 10.2046 23.197C10.0946 23.067 9.95124 23.002 9.77457 23.002C9.60124 23.002 9.45957 23.067 9.34957 23.197C9.23957 23.327 9.18457 23.512 9.18457 23.752C9.18457 23.992 9.23957 24.177 9.34957 24.307C9.45957 24.437 9.60124 24.502 9.77457 24.502ZM11.7101 24.957C11.5201 24.957 11.4251 24.8587 11.4251 24.662V22.847C11.4251 22.6504 11.5101 22.552 11.6801 22.552C11.8468 22.552 11.9351 22.5954 11.9451 22.682L11.9651 22.842C12.0118 22.742 12.0901 22.6587 12.2001 22.592C12.3101 22.5254 12.4368 22.492 12.5801 22.492C12.7368 22.492 12.8735 22.5287 12.9901 22.602C13.1068 22.6754 13.1968 22.7804 13.2601 22.917C13.3235 22.7937 13.4151 22.692 13.5351 22.612C13.6585 22.532 13.7985 22.492 13.9551 22.492C14.1918 22.492 14.3818 22.5754 14.5251 22.742C14.6718 22.9054 14.7451 23.137 14.7451 23.437V24.662C14.7451 24.8587 14.6518 24.957 14.4651 24.957C14.2718 24.957 14.1751 24.8587 14.1751 24.662V23.567C14.1751 23.3904 14.1435 23.252 14.0801 23.152C14.0168 23.052 13.9285 23.002 13.8151 23.002C13.6718 23.002 13.5601 23.0537 13.4801 23.157C13.4035 23.2604 13.3651 23.407 13.3651 23.597V24.662C13.3651 24.8587 13.2718 24.957 13.0851 24.957C12.8951 24.957 12.8001 24.8587 12.8001 24.662V23.567C12.8001 23.3904 12.7668 23.252 12.7001 23.152C12.6335 23.052 12.5435 23.002 12.4301 23.002C12.2901 23.002 12.1818 23.0554 12.1051 23.162C12.0285 23.2654 11.9901 23.4104 11.9901 23.597V24.662C11.9901 24.8587 11.8968 24.957 11.7101 24.957ZM15.7158 24.957C15.5291 24.957 15.4358 24.8587 15.4358 24.662V22.847C15.4358 22.6504 15.5291 22.552 15.7158 22.552C15.9024 22.552 15.9958 22.6504 15.9958 22.847V24.662C15.9958 24.8587 15.9024 24.957 15.7158 24.957ZM15.7108 22.157C15.6141 22.157 15.5308 22.122 15.4608 22.052C15.3908 21.982 15.3558 21.8987 15.3558 21.802C15.3558 21.7054 15.3908 21.622 15.4608 21.552C15.5308 21.482 15.6141 21.447 15.7108 21.447C15.8074 21.447 15.8908 21.482 15.9608 21.552C16.0308 21.622 16.0658 21.7054 16.0658 21.802C16.0658 21.8987 16.0308 21.982 15.9608 22.052C15.8908 22.122 15.8074 22.157 15.7108 22.157ZM16.9591 24.957C16.7691 24.957 16.6741 24.8587 16.6741 24.662V22.847C16.6741 22.6504 16.7591 22.552 16.9291 22.552C17.0991 22.552 17.1875 22.5954 17.1941 22.682L17.2091 22.837C17.2758 22.7437 17.3641 22.6637 17.4741 22.597C17.5841 22.527 17.7141 22.492 17.8641 22.492C18.1141 22.492 18.3175 22.572 18.4741 22.732C18.6341 22.892 18.7141 23.127 18.7141 23.437V24.662C18.7141 24.8587 18.6208 24.957 18.4341 24.957C18.2441 24.957 18.1491 24.8587 18.1491 24.662V23.572C18.1491 23.382 18.1108 23.2404 18.0341 23.147C17.9575 23.0504 17.8541 23.002 17.7241 23.002C17.5808 23.002 17.4641 23.052 17.3741 23.152C17.2841 23.2487 17.2391 23.3937 17.2391 23.587V24.662C17.2391 24.8587 17.1458 24.957 16.9591 24.957ZM20.3154 25.952C19.9387 25.952 19.6404 25.842 19.4204 25.622C19.3504 25.5487 19.3221 25.477 19.3354 25.407C19.3487 25.337 19.3921 25.2787 19.4654 25.232C19.5387 25.182 19.6054 25.1654 19.6654 25.182C19.7254 25.1987 19.7921 25.2354 19.8654 25.292C19.9821 25.392 20.1321 25.442 20.3154 25.442C20.5121 25.442 20.6571 25.382 20.7504 25.262C20.8437 25.142 20.8904 24.9504 20.8904 24.687V24.552C20.7337 24.7154 20.5354 24.797 20.2954 24.797C20.0854 24.797 19.8971 24.7537 19.7304 24.667C19.5671 24.577 19.4387 24.447 19.3454 24.277C19.2521 24.1037 19.2054 23.892 19.2054 23.642C19.2054 23.3887 19.2521 23.177 19.3454 23.007C19.4387 22.837 19.5671 22.7087 19.7304 22.622C19.8971 22.5354 20.0854 22.492 20.2954 22.492C20.4254 22.492 20.5504 22.5204 20.6704 22.577C20.7904 22.6304 20.8887 22.722 20.9654 22.852V22.767C20.9654 22.6837 20.9871 22.627 21.0304 22.597C21.0737 22.567 21.1337 22.552 21.2104 22.552C21.3704 22.552 21.4504 22.6504 21.4504 22.847V24.687C21.4504 25.0837 21.3571 25.3937 21.1704 25.617C20.9871 25.8404 20.7021 25.952 20.3154 25.952ZM20.3404 24.302C20.5137 24.302 20.6554 24.2437 20.7654 24.127C20.8754 24.007 20.9304 23.8454 20.9304 23.642C20.9304 23.4354 20.8754 23.2754 20.7654 23.162C20.6554 23.0454 20.5137 22.987 20.3404 22.987C20.1671 22.987 20.0287 23.0454 19.9254 23.162C19.8254 23.2754 19.7754 23.4354 19.7754 23.642C19.7754 23.8454 19.8254 24.007 19.9254 24.127C20.0287 24.2437 20.1671 24.302 20.3404 24.302ZM24.7811 25.027C24.5345 25.027 24.3045 24.9854 24.0911 24.902C23.8778 24.8154 23.6945 24.672 23.5411 24.472C23.4845 24.392 23.4645 24.3187 23.4811 24.252C23.5011 24.182 23.5511 24.1254 23.6311 24.082C23.7078 24.0354 23.7778 24.022 23.8411 24.042C23.9045 24.0587 23.9678 24.102 24.0311 24.172C24.1211 24.2687 24.2278 24.3437 24.3511 24.397C24.4778 24.4504 24.6278 24.477 24.8011 24.477C25.0345 24.477 25.1978 24.4354 25.2911 24.352C25.3878 24.2654 25.4361 24.1487 25.4361 24.002C25.4361 23.9087 25.4145 23.8287 25.3711 23.762C25.3311 23.6954 25.2445 23.6337 25.1111 23.577C24.9811 23.517 24.7795 23.457 24.5061 23.397C24.1828 23.3204 23.9428 23.1987 23.7861 23.032C23.6328 22.8654 23.5561 22.6537 23.5561 22.397C23.5561 22.1937 23.6045 22.0154 23.7011 21.862C23.8011 21.7054 23.9395 21.5837 24.1161 21.497C24.2961 21.4104 24.5061 21.367 24.7461 21.367C24.9961 21.367 25.2145 21.4104 25.4011 21.497C25.5878 21.5837 25.7445 21.6954 25.8711 21.832C25.9345 21.902 25.9595 21.972 25.9461 22.042C25.9328 22.112 25.8895 22.1754 25.8161 22.232C25.7428 22.292 25.6728 22.3154 25.6061 22.302C25.5395 22.2887 25.4728 22.2504 25.4061 22.187C25.3228 22.1104 25.2278 22.047 25.1211 21.997C25.0145 21.947 24.8878 21.922 24.7411 21.922C24.5678 21.922 24.4261 21.9604 24.3161 22.037C24.2095 22.1104 24.1561 22.222 24.1561 22.372C24.1561 22.4387 24.1711 22.5037 24.2011 22.567C24.2345 22.627 24.3045 22.6854 24.4111 22.742C24.5211 22.7987 24.6895 22.8537 24.9161 22.907C25.3161 22.997 25.6045 23.132 25.7811 23.312C25.9578 23.492 26.0461 23.7187 26.0461 23.992C26.0461 24.3254 25.9295 24.582 25.6961 24.762C25.4661 24.9387 25.1611 25.027 24.7811 25.027ZM27.6213 25.012C27.4013 25.012 27.2029 24.9604 27.0263 24.857C26.8529 24.7504 26.7146 24.6037 26.6112 24.417C26.5113 24.227 26.4613 24.0054 26.4613 23.752C26.4613 23.4987 26.5113 23.2787 26.6112 23.092C26.7146 22.902 26.8529 22.7554 27.0263 22.652C27.2029 22.5454 27.4013 22.492 27.6213 22.492C27.8479 22.492 28.0479 22.5454 28.2213 22.652C28.3979 22.7554 28.5363 22.902 28.6363 23.092C28.7363 23.2787 28.7863 23.4987 28.7863 23.752C28.7863 24.0054 28.7363 24.227 28.6363 24.417C28.5363 24.6037 28.3979 24.7504 28.2213 24.857C28.0479 24.9604 27.8479 25.012 27.6213 25.012ZM27.6213 24.502C27.7979 24.502 27.9413 24.437 28.0513 24.307C28.1646 24.177 28.2213 23.992 28.2213 23.752C28.2213 23.512 28.1646 23.327 28.0513 23.197C27.9413 23.067 27.7979 23.002 27.6213 23.002C27.4479 23.002 27.3063 23.067 27.1963 23.197C27.0863 23.327 27.0313 23.512 27.0313 23.752C27.0313 23.992 27.0863 24.177 27.1963 24.307C27.3063 24.437 27.4479 24.502 27.6213 24.502ZM30.3068 25.012C30.0868 25.012 29.8885 24.9604 29.7118 24.857C29.5385 24.7504 29.4001 24.6037 29.2968 24.417C29.1968 24.227 29.1468 24.0054 29.1468 23.752C29.1468 23.4987 29.1968 23.2787 29.2968 23.092C29.4001 22.902 29.5385 22.7554 29.7118 22.652C29.8885 22.5454 30.0868 22.492 30.3068 22.492C30.5335 22.492 30.7335 22.5454 30.9068 22.652C31.0835 22.7554 31.2218 22.902 31.3218 23.092C31.4218 23.2787 31.4718 23.4987 31.4718 23.752C31.4718 24.0054 31.4218 24.227 31.3218 24.417C31.2218 24.6037 31.0835 24.7504 30.9068 24.857C30.7335 24.9604 30.5335 25.012 30.3068 25.012ZM30.3068 24.502C30.4835 24.502 30.6268 24.437 30.7368 24.307C30.8501 24.177 30.9068 23.992 30.9068 23.752C30.9068 23.512 30.8501 23.327 30.7368 23.197C30.6268 23.067 30.4835 23.002 30.3068 23.002C30.1335 23.002 29.9918 23.067 29.8818 23.197C29.7718 23.327 29.7168 23.512 29.7168 23.752C29.7168 23.992 29.7718 24.177 29.8818 24.307C29.9918 24.437 30.1335 24.502 30.3068 24.502ZM32.2423 24.957C32.0523 24.957 31.9573 24.8587 31.9573 24.662V22.847C31.9573 22.6504 32.0423 22.552 32.2123 22.552C32.3823 22.552 32.4707 22.5954 32.4773 22.682L32.4923 22.837C32.559 22.7437 32.6473 22.6637 32.7573 22.597C32.8673 22.527 32.9973 22.492 33.1473 22.492C33.3973 22.492 33.6007 22.572 33.7573 22.732C33.9173 22.892 33.9973 23.127 33.9973 23.437V24.662C33.9973 24.8587 33.904 24.957 33.7173 24.957C33.5273 24.957 33.4323 24.8587 33.4323 24.662V23.572C33.4323 23.382 33.394 23.2404 33.3173 23.147C33.2407 23.0504 33.1373 23.002 33.0073 23.002C32.864 23.002 32.7473 23.052 32.6573 23.152C32.5673 23.2487 32.5223 23.3937 32.5223 23.587V24.662C32.5223 24.8587 32.429 24.957 32.2423 24.957Z" fill="white"/>
</g>
<defs>
<clipPath id="clip0_3545_5688">
<rect width="38" height="38" fill="white" transform="translate(1 1)"/>
</clipPath>
</defs>
</svg>
