<?xml version="1.0" encoding="UTF-8" standalone="no"?>
<!DOCTYPE svg PUBLIC "-//W3C//DTD SVG 1.1//EN" "http://www.w3.org/Graphics/SVG/1.1/DTD/svg11.dtd">
<svg width="100%" height="100%" viewBox="0 0 765 640" version="1.1" xmlns="http://www.w3.org/2000/svg" xmlns:xlink="http://www.w3.org/1999/xlink" xml:space="preserve" xmlns:serif="http://www.serif.com/" style="fill-rule:evenodd;clip-rule:evenodd;stroke-linejoin:round;stroke-miterlimit:2;">
    <g transform="matrix(1,0,0,1,-2750.754711,-772.55738)">
        <g>
            <g transform="matrix(0.270414,0,0,0.270414,3141.97116,1092.3026)">
                <g transform="matrix(1,0,0,1,-1185.416667,-991.666667)">
                    <g transform="matrix(4.166667,0,0,4.166667,0,0)">
                        <g>
                            <path d="M408.6,129.7L389.7,160.2L354.7,169.1L328.6,214L375.2,240.3L394.6,286.7L381.3,323.3L398.2,363.3L429,313.9L462.3,293.2L485.3,297.8C490.9,278.6 494,258.3 494,237.3C494,191.1 479.4,148.3 454.5,113.3L408.6,129.7Z" style="fill:white;fill-rule:nonzero;"/>
                            <path d="M398.3,370.6L397.7,370.6C395,370.4 392.6,368.7 391.6,366.2L374.7,326.2C374,324.5 373.9,322.6 374.6,320.9L386.9,286.9L369.5,245.4L325.1,220.3C323.4,219.3 322.2,217.8 321.7,215.9C321.2,214 321.5,212 322.4,210.4L348.5,165.5C349.5,163.8 351.1,162.6 353,162.1L385.1,153.9L402.4,125.9C403.3,124.5 404.6,123.4 406.1,122.9L452.1,106.6C455.2,105.5 458.6,106.6 460.4,109.2C487.1,146.8 501.2,191.1 501.2,237.4C501.2,258.7 498.2,279.7 492.2,300C491.1,303.6 487.5,305.8 483.8,305.1L463.7,301.1L434.3,319.4L404.4,367.4C403.1,369.3 400.8,370.6 398.3,370.6ZM389.2,323.2L399.6,347.7L423,310.2C423.6,309.3 424.4,308.5 425.3,307.9L458.6,287.2C460.2,286.2 462,285.9 463.9,286.3L480.2,289.6C484.6,272.7 486.8,255.2 486.8,237.5C486.8,196.1 474.7,156.4 451.8,122.2L413.4,135.8L395.9,164.1C394.9,165.7 393.3,166.9 391.5,167.3L359.5,175.4L338.6,211.4L378.8,234.1C380.2,234.9 381.3,236.1 381.9,237.6L401.3,284C402,285.7 402,287.6 401.4,289.3L389.2,323.2Z" style="fill:rgb(146,148,151);fill-rule:nonzero;"/>
                        </g>
                        <g>
                            <path d="M335.1,30.3C317.4,25.6 298.8,23 279.6,23C255.4,23 232.2,27 210.5,34.4L232.1,58.2L262.4,62.6L287.6,78.1L335.1,30.3Z" style="fill:white;fill-rule:nonzero;"/>
                            <path d="M287.6,85.4C286.3,85.4 285,85 283.8,84.3L259.9,69.5L231.1,65.3C229.4,65.1 227.9,64.2 226.8,63L205.2,39.2C203.6,37.4 202.9,34.9 203.5,32.5C204.1,30.1 205.9,28.2 208.2,27.5C231.2,19.7 255.2,15.7 279.6,15.7C299,15.7 318.3,18.2 337,23.2C339.5,23.9 341.5,25.8 342.1,28.3C342.8,30.8 342.1,33.5 340.2,35.3L292.7,83.1C291.4,84.6 289.5,85.4 287.6,85.4ZM235.8,51.3L263.6,55.4C264.6,55.5 265.5,55.9 266.4,56.4L286.7,68.9L321,34.3C307.5,31.6 293.7,30.2 279.8,30.2C260.7,30.2 241.9,32.8 223.7,37.9L235.8,51.3Z" style="fill:rgb(146,148,151);fill-rule:nonzero;"/>
                        </g>
                        <g>
                            <path d="M172.2,283.8L116,317.8L99.8,354C120,385.1 148.1,410.6 181.2,427.8L195.8,395.5L188.4,363.3L195.8,328.2L172.2,283.8Z" style="fill:white;fill-rule:nonzero;"/>
                            <path d="M181.2,435.1C180.1,435.1 178.9,434.8 177.9,434.3C143.8,416.6 114.7,390.3 93.7,358C92.4,355.9 92.2,353.3 93.2,351.1L109.4,314.9C110,313.6 111,312.4 112.3,311.7L168.5,277.7C170.2,276.7 172.3,276.4 174.2,276.9C176.1,277.4 177.7,278.7 178.7,280.5L202.4,324.9C203.2,326.4 203.4,328.1 203.1,329.8L196,363.4L203,394C203.4,395.5 203.2,397.2 202.5,398.6L187.9,430.9C187.1,432.7 185.6,434.1 183.7,434.8C182.8,435 182,435.1 181.2,435.1ZM108.1,353.4C126.1,379.9 150,402 177.9,417.8L188.3,394.8L181.5,365C181.3,364 181.3,362.9 181.5,361.9L188.4,329.3L169.4,294L121.7,322.9L108.1,353.4Z" style="fill:rgb(146,148,151);fill-rule:nonzero;"/>
                        </g>
                        <g>
                            <path d="M250.6,397L235,447.1C249.4,450.1 264.4,451.8 279.7,451.8C313.7,451.8 345.8,443.9 374.3,429.8L328.7,403.7L313.5,358.6L282.4,388.2L250.6,397Z" style="fill:white;fill-rule:nonzero;"/>
                            <path d="M279.7,459C264.2,459 248.6,457.4 233.5,454.2C231.5,453.8 229.8,452.5 228.7,450.8C227.7,449 227.4,446.9 228,445L243.6,394.9C244.3,392.6 246.2,390.7 248.6,390.1L278.7,381.7L308.5,353.4C310.3,351.7 312.8,351 315.2,351.6C317.6,352.2 319.5,354 320.3,356.3L334.6,398.8L377.8,423.6C380.1,424.9 381.5,427.4 381.4,430.1C381.3,432.8 379.8,435.2 377.4,436.4C346.9,451.3 314,459 279.7,459ZM244.3,441.5C255.9,443.5 267.8,444.5 279.6,444.5C307,444.5 333.4,439.3 358.3,429L325,409.9C323.5,409 322.3,407.6 321.7,405.9L310.2,371.6L287.4,393.3C286.5,394.1 285.5,394.7 284.3,395L256.3,402.8L244.3,441.5Z" style="fill:rgb(146,148,151);fill-rule:nonzero;"/>
                        </g>
                        <g>
                            <path d="M279.7,459C220.5,459 164.8,435.9 123,394.1C81.1,352.2 58,296.6 58,237.4C58,178.2 81.1,122.5 123,80.7C164.9,38.8 220.5,15.8 279.7,15.8C338.9,15.8 394.5,38.9 436.4,80.7C478.3,122.6 501.3,178.2 501.3,237.4C501.3,296.6 478.2,352.2 436.4,394.1C394.5,435.9 338.9,459 279.7,459ZM279.7,30.3C165.5,30.3 72.6,123.2 72.6,237.4C72.6,351.6 165.5,444.5 279.7,444.5C393.9,444.5 486.8,351.6 486.8,237.4C486.8,123.2 393.9,30.3 279.7,30.3Z" style="fill:rgb(146,148,151);fill-rule:nonzero;"/>
                        </g>
                        <g>
                            <path d="M117.9,400.9C110.8,400.9 101.3,400 89.5,397L89.3,397C71.8,392.2 59,382.2 52.1,368.3C45.1,354.2 44.8,336.9 51.3,320.8C51.3,320.8 51.3,320.7 51.4,320.7C69.1,279.1 117.9,236.8 119.9,235.1C122.9,232.5 127.5,232.8 130.1,235.9C132.7,238.9 132.4,243.5 129.3,246.1C128.8,246.5 81,287.9 64.7,326.3C59.8,338.6 60,351.6 65.1,361.9C70.1,372 79.8,379.4 93.1,383.1C116.8,389 129,385.3 129.1,385.3C132.9,384 137,386.1 138.3,389.8C139.6,393.6 137.5,397.7 133.7,399C132.7,399.2 127.4,400.9 117.9,400.9Z" style="fill:rgb(146,148,151);fill-rule:nonzero;"/>
                        </g>
                        <g>
                            <path d="M487.9,193.4C486.3,193.4 484.8,192.9 483.5,191.9C480.3,189.4 479.8,184.9 482.2,181.7C490.4,171.1 509.9,139.8 502.5,121.7C494.5,106.5 466.6,92.9 412.3,99.7C357.9,106.6 336,119.4 335.8,119.5C332.4,121.6 327.9,120.5 325.9,117.1C323.8,113.7 324.9,109.3 328.3,107.2C329.3,106.6 352.5,92.7 410.5,85.3C438.1,81.8 461.6,83.1 480.3,89C501.7,95.8 511.3,107 515.5,115.2C515.6,115.4 515.7,115.5 515.7,115.7C521.2,128.5 519,145.2 509.1,165.3C502.2,179.4 493.9,190.1 493.6,190.6C492.2,192.5 490,193.4 487.9,193.4Z" style="fill:rgb(146,148,151);fill-rule:nonzero;"/>
                        </g>
                        <g>
                            <path d="M210.6,158.8L164.5,104.4L182.3,94.4L246.3,136.2L259.6,128.4C259.6,128.4 282.2,111.8 300.3,126.6C304.7,133.6 307,143.2 291.1,158.8C282.2,169.2 273,178.8 273,178.8L277.8,255.7L255.8,269L233.9,200.2L195.8,215.7L197.6,246.8L187.2,253.8L138,172.8L152.1,166.5L177.6,181.7L210.6,158.8Z" style="fill:white;fill-rule:nonzero;"/>
                            <path d="M255.8,276.3C254.9,276.3 254.1,276.1 253.3,275.8C251.2,275 249.6,273.3 248.9,271.2L229.4,209.9L203.4,220.5L204.9,246.4C205.1,249 203.8,251.4 201.7,252.8L191.3,259.8C189.7,260.9 187.6,261.3 185.7,260.9C183.8,260.5 182.1,259.3 181,257.6L131.8,176.6C130.7,174.8 130.5,172.7 131.1,170.7C131.7,168.7 133.2,167.1 135.1,166.2L149.2,159.9C151.4,158.9 153.8,159.1 155.9,160.3L177.4,173.1L199.9,157.4L158.9,109.1C157.5,107.4 156.9,105.3 157.3,103.1C157.7,101 159,99.1 160.9,98.1L178.7,88.1C181.1,86.8 184,86.9 186.2,88.3L246.4,127.7L255.6,122.4C259,120 283.7,103.8 304.8,121C305.4,121.5 305.9,122.1 306.3,122.7C314.5,135.6 311.2,149 296.2,163.7C289.9,171.1 283.5,178 280.2,181.4L284.8,255.2C285,257.9 283.6,260.4 281.3,261.8L259.5,275.1C258.4,275.9 257.1,276.3 255.8,276.3ZM233.9,192.9C235,192.9 236,193.1 237,193.6C238.8,194.5 240.2,196 240.8,198L259.9,258L270.1,251.8L265.6,179.2C265.5,177.2 266.2,175.2 267.6,173.7C267.7,173.6 276.8,164.1 285.4,154C285.5,153.8 285.7,153.7 285.8,153.5C298.6,141 296.7,135 294.6,131.4C281.3,121.6 264.4,133.6 263.7,134.2C263.5,134.3 263.3,134.5 263.1,134.6L249.8,142.4C247.4,143.8 244.5,143.7 242.2,142.2L181.9,102.8L175.6,106.3L216,154C217.3,155.6 217.9,157.6 217.7,159.6C217.5,161.6 216.3,163.4 214.7,164.6L181.9,187.5C179.6,189.1 176.5,189.2 174,187.8L151.7,174.5L148.6,175.9L189.6,243.4L190.2,243L188.6,216C188.4,212.9 190.2,210 193.1,208.9L231.2,193.4C232.1,193.1 233,192.9 233.9,192.9Z" style="fill:rgb(146,148,151);fill-rule:nonzero;"/>
                        </g>
                    </g>
                </g>
            </g>
            <g transform="matrix(0.322432,0,0,0.322432,3132.97116,1092.3026)">
                <g transform="matrix(1,0,0,1,-1185.416667,-991.666667)">
                    <g transform="matrix(4.166667,0,0,4.166667,0,0)">
                        <g transform="matrix(1,0,0,1,-0.7,-4.5)">
                            <g>
                                <path d="M563,291.2C563,301.3 554.7,309.6 544.6,309.6L25.8,309.6C15.7,309.6 7.4,301.3 7.4,291.2L7.4,193.8C7.4,183.7 15.7,175.4 25.8,175.4L544.6,175.4C554.7,175.4 563,183.7 563,193.8L563,291.2Z" style="fill:rgb(253,184,19);fill-rule:nonzero;"/>
                            </g>
                            <g>
                                <path d="M90.6,267.1C85.8,267.1 81.5,266 77.8,263.7C74,261.4 71.1,258.2 69,254.1C66.9,249.9 65.8,245.1 65.8,239.5C65.8,233.9 66.9,229 69,224.8C71.1,220.6 74,217.4 77.8,215.1C81.5,212.8 85.8,211.7 90.6,211.7C94.2,211.7 97.5,212.4 100.5,213.7C103.5,215 106.1,216.8 108.3,219.2C109.3,220.3 109.6,221.4 109.3,222.6C108.9,223.7 108.3,224.6 107.3,225.2L106.9,225.4C106.2,225.8 105.3,226 104.1,225.9C102.9,225.8 101.8,225.3 100.8,224.3C99.5,223 98,222 96.3,221.3C94.6,220.6 92.7,220.3 90.7,220.3C87.6,220.3 84.8,221.1 82.5,222.7C80.1,224.3 78.3,226.5 77,229.4C75.7,232.3 75.1,235.7 75.1,239.6C75.1,243.4 75.7,246.8 77,249.7C78.3,252.6 80.1,254.8 82.5,256.4C84.9,258 87.6,258.8 90.7,258.8C94.7,258.8 98.1,257.5 100.8,254.8C101.8,253.8 102.8,253.3 103.9,253.1C105,252.9 106,253.1 106.9,253.6L107.1,253.8C108.2,254.3 108.9,255.1 109.3,256.3C109.7,257.5 109.5,258.6 108.5,259.7C106.3,262.1 103.7,264 100.6,265.3C97.5,266.4 94.2,267.1 90.6,267.1Z" style="fill:white;fill-rule:nonzero;"/>
                                <path d="M134.1,266.7C130.8,266.7 127.8,265.9 125.1,264.3C122.5,262.7 120.4,260.5 118.8,257.6C117.3,254.8 116.5,251.4 116.5,247.6C116.5,243.8 117.3,240.4 118.8,237.6C120.3,234.8 122.4,232.5 125.1,230.9C127.8,229.3 130.7,228.5 134.1,228.5C137.5,228.5 140.6,229.3 143.2,230.9C145.8,232.5 147.9,234.7 149.4,237.6C150.9,240.4 151.7,243.8 151.7,247.6C151.7,251.4 150.9,254.8 149.4,257.6C147.9,260.4 145.8,262.7 143.2,264.3C140.6,265.9 137.5,266.7 134.1,266.7ZM134.1,259C136.8,259 139,258 140.6,256C142.3,254 143.1,251.2 143.1,247.6C143.1,244 142.3,241.2 140.6,239.2C138.9,237.2 136.7,236.3 134.1,236.3C131.5,236.3 129.3,237.3 127.7,239.2C126,241.2 125.2,244 125.2,247.6C125.2,251.2 126,254 127.7,256C129.3,258 131.5,259 134.1,259Z" style="fill:white;fill-rule:nonzero;"/>
                                <path d="M163.3,265.9C160.4,265.9 159,264.4 159,261.4L159,234C159,231 160.3,229.5 162.8,229.5C165.3,229.5 166.7,230.2 166.8,231.5L167.1,233.9C167.8,232.4 169,231.1 170.6,230.1C172.3,229.1 174.2,228.6 176.3,228.6C178.7,228.6 180.7,229.2 182.5,230.3C184.3,231.4 185.6,233 186.6,235.1C187.6,233.2 189,231.7 190.8,230.5C192.6,229.3 194.7,228.7 197.1,228.7C200.7,228.7 203.6,229.9 205.8,232.4C208,234.9 209.1,238.4 209.1,242.9L209.1,261.4C209.1,264.4 207.7,265.9 204.9,265.9C202,265.9 200.5,264.4 200.5,261.4L200.5,244.8C200.5,242.1 200,240 199.1,238.5C198.1,237 196.8,236.2 195.1,236.2C192.9,236.2 191.3,237 190.1,238.5C188.9,240.1 188.3,242.3 188.3,245.1L188.3,261.2C188.3,264.2 186.9,265.7 184.1,265.7C181.2,265.7 179.8,264.2 179.8,261.2L179.8,244.6C179.8,241.9 179.3,239.8 178.3,238.3C177.3,236.8 175.9,236 174.2,236C172.1,236 170.5,236.8 169.3,238.4C168.1,240 167.6,242.2 167.6,245L167.6,261.1C167.6,264.4 166.2,265.9 163.3,265.9Z" style="fill:white;fill-rule:nonzero;"/>
                                <path d="M223.8,223.6C222.3,223.6 221.1,223.1 220,222C218.9,220.9 218.4,219.7 218.4,218.2C218.4,216.7 218.9,215.5 220,214.4C221.1,213.3 222.3,212.8 223.8,212.8C225.3,212.8 226.5,213.3 227.6,214.4C228.7,215.5 229.2,216.7 229.2,218.2C229.2,219.7 228.7,220.9 227.6,222C226.5,223 225.3,223.6 223.8,223.6ZM223.9,265.9C221.1,265.9 219.7,264.4 219.7,261.4L219.7,234C219.7,231 221.1,229.5 223.9,229.5C226.7,229.5 228.1,231 228.1,234L228.1,261.4C228.1,264.4 226.7,265.9 223.9,265.9Z" style="fill:white;fill-rule:nonzero;"/>
                                <path d="M242.7,265.9C239.8,265.9 238.4,264.4 238.4,261.4L238.4,234C238.4,231 239.7,229.5 242.2,229.5C244.8,229.5 246.1,230.2 246.2,231.5L246.4,233.8C247.4,232.4 248.8,231.2 250.4,230.1C252.1,229.1 254,228.6 256.3,228.6C260.1,228.6 263.2,229.8 265.6,232.2C268,234.6 269.2,238.2 269.2,242.9L269.2,261.4C269.2,264.4 267.8,265.9 265,265.9C262.1,265.9 260.7,264.4 260.7,261.4L260.7,244.9C260.7,242 260.1,239.9 259,238.4C257.8,237 256.3,236.2 254.3,236.2C252.1,236.2 250.4,236.9 249,238.4C247.6,239.9 247,242.1 247,245L247,261.3C246.9,264.4 245.5,265.9 242.7,265.9Z" style="fill:white;fill-rule:nonzero;"/>
                                <path d="M293.4,280.9C287.7,280.9 283.2,279.2 279.9,275.9C278.8,274.8 278.4,273.7 278.6,272.7C278.8,271.7 279.5,270.8 280.6,270.1C281.7,269.3 282.7,269.1 283.6,269.3C284.5,269.6 285.5,270.1 286.6,271C288.4,272.5 290.6,273.3 293.4,273.3C296.4,273.3 298.6,272.4 300,270.6C301.4,268.8 302.1,265.9 302.1,261.9L302.1,259.9C299.7,262.4 296.7,263.6 293.1,263.6C289.9,263.6 287.1,262.9 284.6,261.6C282.1,260.3 280.2,258.3 278.7,255.7C277.3,253.1 276.6,249.9 276.6,246.1C276.6,242.3 277.3,239.1 278.7,236.5C280.1,233.9 282.1,232 284.6,230.7C287.1,229.4 289.9,228.7 293.1,228.7C295.1,228.7 297,229.1 298.8,229.9C300.6,230.7 302.1,232.1 303.3,234.1L303.3,232.8C303.3,231.5 303.6,230.7 304.3,230.2C305,229.7 305.9,229.5 307,229.5C309.4,229.5 310.6,231 310.6,234L310.6,261.8C310.6,267.8 309.2,272.5 306.4,275.9C303.6,279.3 299.3,280.9 293.4,280.9ZM293.8,256C296.4,256 298.6,255.1 300.2,253.3C301.9,251.5 302.7,249.1 302.7,246C302.7,242.9 301.9,240.4 300.2,238.7C298.5,237 296.4,236.1 293.8,236.1C291.2,236.1 289.1,237 287.6,238.7C286.1,240.4 285.3,242.9 285.3,246C285.3,249.1 286.1,251.5 287.6,253.3C289.1,255.1 291.2,256 293.8,256Z" style="fill:white;fill-rule:nonzero;"/>
                                <path d="M360.9,266.9C357.2,266.9 353.7,266.3 350.5,265C347.3,263.7 344.5,261.6 342.2,258.5C341.3,257.3 341,256.2 341.3,255.1C341.6,254.1 342.3,253.2 343.5,252.6C344.7,251.9 345.7,251.7 346.7,252C347.7,252.3 348.6,252.9 349.6,254C351,255.5 352.6,256.6 354.5,257.4C356.4,258.2 358.6,258.6 361.3,258.6C364.8,258.6 367.3,258 368.7,256.7C370.1,255.4 370.9,253.7 370.9,251.5C370.9,250.1 370.6,248.9 370,247.9C369.4,246.9 368.1,245.9 366.1,245.1C364.1,244.2 361,243.3 356.9,242.4C352,241.2 348.4,239.4 346.1,236.9C343.8,234.4 342.6,231.2 342.6,227.3C342.6,224.2 343.3,221.5 344.8,219.2C346.3,216.9 348.4,215 351.1,213.7C353.8,212.4 357,211.7 360.6,211.7C364.4,211.7 367.7,212.4 370.5,213.7C373.3,215 375.7,216.7 377.6,218.8C378.6,219.9 378.9,220.9 378.7,222C378.5,223.1 377.8,224 376.7,224.9C375.6,225.8 374.5,226.2 373.5,226C372.5,225.8 371.5,225.2 370.5,224.3C369.2,223.1 367.8,222.2 366.2,221.4C364.6,220.6 362.7,220.3 360.5,220.3C357.9,220.3 355.8,220.9 354.1,222C352.5,223.1 351.6,224.8 351.6,227.1C351.6,228.1 351.8,229.1 352.3,230C352.8,230.9 353.8,231.8 355.5,232.7C357.1,233.6 359.7,234.4 363.1,235.2C369.1,236.6 373.5,238.6 376.2,241.3C378.9,244 380.2,247.5 380.2,251.6C380.2,256.6 378.5,260.5 375,263.2C371.3,265.6 366.6,266.9 360.9,266.9Z" style="fill:white;fill-rule:nonzero;"/>
                                <path d="M403.8,266.7C400.5,266.7 397.5,265.9 394.8,264.3C392.2,262.7 390.1,260.5 388.5,257.6C387,254.8 386.2,251.4 386.2,247.6C386.2,243.8 387,240.4 388.5,237.6C390,234.8 392.1,232.5 394.8,230.9C397.4,229.3 400.4,228.5 403.8,228.5C407.2,228.5 410.3,229.3 412.9,230.9C415.5,232.5 417.6,234.7 419.1,237.6C420.6,240.4 421.4,243.8 421.4,247.6C421.4,251.4 420.6,254.8 419.1,257.6C417.6,260.4 415.5,262.7 412.9,264.3C410.3,265.9 407.3,266.7 403.8,266.7ZM403.8,259C406.5,259 408.7,258 410.3,256C412,254 412.8,251.2 412.8,247.6C412.8,244 412,241.2 410.3,239.2C408.6,237.2 406.4,236.3 403.8,236.3C401.2,236.3 399,237.3 397.4,239.2C395.7,241.2 394.9,244 394.9,247.6C394.9,251.2 395.7,254 397.4,256C399.1,258 401.2,259 403.8,259Z" style="fill:white;fill-rule:nonzero;"/>
                                <path d="M444.4,266.7C441.1,266.7 438.1,265.9 435.4,264.3C432.8,262.7 430.7,260.5 429.1,257.6C427.6,254.8 426.8,251.4 426.8,247.6C426.8,243.8 427.6,240.4 429.1,237.6C430.6,234.8 432.7,232.5 435.4,230.9C438,229.3 441,228.5 444.4,228.5C447.8,228.5 450.9,229.3 453.5,230.9C456.1,232.5 458.2,234.7 459.7,237.6C461.2,240.4 462,243.8 462,247.6C462,251.4 461.2,254.8 459.7,257.6C458.2,260.4 456.1,262.7 453.5,264.3C450.9,265.9 447.8,266.7 444.4,266.7ZM444.4,259C447.1,259 449.3,258 450.9,256C452.6,254 453.4,251.2 453.4,247.6C453.4,244 452.6,241.2 450.9,239.2C449.2,237.2 447,236.3 444.4,236.3C441.8,236.3 439.6,237.3 438,239.2C436.3,241.2 435.5,244 435.5,247.6C435.5,251.2 436.3,254 438,256C439.7,258 441.8,259 444.4,259Z" style="fill:white;fill-rule:nonzero;"/>
                                <path d="M473.7,265.9C470.8,265.9 469.4,264.4 469.4,261.4L469.4,234C469.4,231 470.7,229.5 473.2,229.5C475.8,229.5 477.1,230.2 477.2,231.5L477.4,233.8C478.4,232.4 479.8,231.2 481.4,230.1C483.1,229.1 485,228.6 487.3,228.6C491.1,228.6 494.2,229.8 496.6,232.2C499,234.6 500.2,238.2 500.2,242.9L500.2,261.4C500.2,264.4 498.8,265.9 496,265.9C493.1,265.9 491.7,264.4 491.7,261.4L491.7,244.9C491.7,242 491.1,239.9 490,238.4C488.8,237 487.3,236.2 485.3,236.2C483.1,236.2 481.4,236.9 480,238.4C478.6,239.9 478,242.1 478,245L478,261.3C477.9,264.4 476.5,265.9 473.7,265.9Z" style="fill:white;fill-rule:nonzero;"/>
                            </g>
                        </g>
                    </g>
                </g>
            </g>
        </g>
    </g>
</svg>
