<svg width="100" height="100" viewBox="0 0 100 100" fill="none" xmlns="http://www.w3.org/2000/svg">
<g clip-path="url(#clip0_6919_11853)">
<path d="M87.9436 24.2353H12.0561C10.5447 24.2353 9.31445 23 9.31445 21.4647C9.31445 19.9294 10.5447 18.7118 12.0561 18.7118H87.9436C89.4551 18.7118 90.6853 19.9471 90.6853 21.4647C90.6853 22.9824 89.4551 24.2353 87.9436 24.2353Z" fill="#FDB813"/>
<path d="M70.7378 28.2059C74.9018 28.2059 78.2773 24.8164 78.2773 20.6353C78.2773 16.4542 74.9018 13.0647 70.7378 13.0647C66.5738 13.0647 63.1982 16.4542 63.1982 20.6353C63.1982 24.8164 66.5738 28.2059 70.7378 28.2059Z" fill="#FDB813"/>
<path d="M87.9436 82.1176H12.0561C10.5447 82.1176 9.31445 80.8823 9.31445 79.3646C9.31445 77.847 10.5447 76.6117 12.0561 76.6117H87.9436C89.4551 76.6117 90.6853 77.847 90.6853 79.3646C90.6853 80.8823 89.4551 82.1176 87.9436 82.1176Z" fill="#FDB813"/>
<path d="M70.7378 86.9352C74.9018 86.9352 78.2773 83.5458 78.2773 79.3647C78.2773 75.1835 74.9018 71.7941 70.7378 71.7941C66.5738 71.7941 63.1982 75.1835 63.1982 79.3647C63.1982 83.5458 66.5738 86.9352 70.7378 86.9352Z" fill="#FDB813"/>
<path d="M87.9436 53.1764H12.0561C10.5447 53.1764 9.31445 51.9411 9.31445 50.4235C9.31445 48.9058 10.5447 47.6705 12.0561 47.6705H87.9436C89.4551 47.6705 90.6853 48.9058 90.6853 50.4235C90.6853 51.9411 89.4551 53.1764 87.9436 53.1764Z" fill="#FDB813"/>
<path d="M29.8242 57.9941C33.9882 57.9941 37.3638 54.6046 37.3638 50.4235C37.3638 46.2424 33.9882 42.8529 29.8242 42.8529C25.6602 42.8529 22.2847 46.2424 22.2847 50.4235C22.2847 54.6046 25.6602 57.9941 29.8242 57.9941Z" fill="#FDB813"/>
</g>
<defs>
<clipPath id="clip0_6919_11853">
<rect width="82" height="74" fill="white" transform="translate(9 13)"/>
</clipPath>
</defs>
</svg>
