<svg width="40" height="40" viewBox="0 0 40 40" fill="none" xmlns="http://www.w3.org/2000/svg">
<path d="M19.9252 38.3248C19.8252 38.3248 19.7252 38.2998 19.6252 38.2581C18.0752 37.5415 15.7086 36.2748 13.2336 34.3415C10.6336 32.3081 8.50022 29.9748 6.88355 27.4248C6.88355 27.4165 6.87522 27.4165 6.87522 27.4081C5.50022 25.0998 4.40022 22.0998 3.70855 18.7248C2.90022 14.7748 2.65022 10.4665 2.96689 5.91647C2.99189 5.53314 3.32522 5.23314 3.70855 5.25814C3.73355 5.25814 6.20855 5.38314 9.39189 4.8498C12.2919 4.35814 16.3836 3.1998 19.4502 0.458136C19.6919 0.241469 20.0502 0.216469 20.3169 0.399802C20.5169 0.533136 20.7419 0.691469 20.9836 0.858136C23.3086 2.4998 27.6419 5.55814 36.3502 5.2748C36.7336 5.25814 37.0669 5.56647 37.0836 5.9498C37.3586 12.2415 36.9086 21.1081 33.2419 27.6415C33.2336 27.6581 33.2169 27.6831 33.2086 27.6998C30.5086 31.5665 25.6586 36.3831 20.1586 38.2915C20.0836 38.3081 20.0086 38.3248 19.9252 38.3248ZM8.09189 26.6748C11.7502 32.4498 17.4252 35.6415 19.9586 36.8498C25.0252 34.9915 29.6086 30.3665 32.0252 26.9081C35.3836 20.8998 35.8919 12.7331 35.6919 6.6998C35.5336 6.6998 35.3669 6.6998 35.2086 6.6998C26.8086 6.6998 22.5169 3.66647 20.1586 2.00814C20.0919 1.95814 20.0252 1.91647 19.9669 1.8748C16.7086 4.58314 12.5669 5.7498 9.60022 6.2498C7.26689 6.64147 5.33355 6.6998 4.34189 6.69147C3.90022 14.5331 5.28355 21.9665 8.09189 26.6748Z" fill="#929497"/>
<path d="M21.4415 28.6585H18.3332C17.3665 28.6585 16.5832 27.8752 16.5832 26.9085V22.6085H12.2832C11.3165 22.6085 10.5332 21.8252 10.5332 20.8585V17.7502C10.5332 16.7835 11.3165 16.0002 12.2832 16.0002H16.5832V11.7002C16.5832 10.7335 17.3665 9.9502 18.3332 9.9502H21.4332C22.3999 9.9502 23.1832 10.7335 23.1832 11.7002V16.0002H27.4832C28.4499 16.0002 29.2332 16.7835 29.2332 17.7502V20.8502C29.2332 21.8169 28.4499 22.6002 27.4832 22.6002H23.1832V26.9002C23.1915 27.8669 22.4082 28.6585 21.4415 28.6585ZM12.2832 17.4169C12.0999 17.4169 11.9499 17.5669 11.9499 17.7502V20.8502C11.9499 21.0335 12.0999 21.1835 12.2832 21.1835H17.2915C17.6832 21.1835 17.9999 21.5002 17.9999 21.8919V26.9002C17.9999 27.0835 18.1499 27.2335 18.3332 27.2335H21.4332C21.6165 27.2335 21.7665 27.0835 21.7665 26.9002V21.8919C21.7665 21.5002 22.0832 21.1835 22.4749 21.1835H27.4832C27.6665 21.1835 27.8165 21.0335 27.8165 20.8502V17.7502C27.8165 17.5669 27.6665 17.4169 27.4832 17.4169H22.4749C22.0832 17.4169 21.7665 17.1002 21.7665 16.7085V11.7002C21.7665 11.5169 21.6165 11.3669 21.4332 11.3669H18.3332C18.1499 11.3669 17.9999 11.5169 17.9999 11.7002V16.7085C17.9999 17.1002 17.6832 17.4169 17.2915 17.4169H12.2832Z" fill="#929497"/>
<path d="M38.7418 22.4165C38.7418 23.0939 38.1744 23.6504 37.4836 23.6504H2.00817C1.31741 23.6504 0.75 23.0939 0.75 22.4165V15.8843C0.75 15.2068 1.31741 14.6504 2.00817 14.6504H37.4918C38.1826 14.6504 38.75 15.2068 38.75 15.8843V22.4165H38.7418Z" fill="#FDB813"/>
<path d="M7.82 21.08C7.50333 21.08 7.22 21.005 6.97 20.855C6.72333 20.705 6.53 20.4933 6.39 20.22C6.25 19.9433 6.18 19.62 6.18 19.25C6.18 18.8767 6.25 18.5533 6.39 18.28C6.53 18.0033 6.72333 17.79 6.97 17.64C7.22 17.4867 7.50333 17.41 7.82 17.41C8.05667 17.41 8.27333 17.4533 8.47 17.54C8.67 17.6267 8.84333 17.7483 8.99 17.905C9.05667 17.9783 9.07833 18.0533 9.055 18.13C9.03167 18.2033 8.98667 18.26 8.92 18.3L8.895 18.315C8.85167 18.3417 8.79 18.3517 8.71 18.345C8.63 18.3383 8.55667 18.3033 8.49 18.24C8.40333 18.1533 8.30333 18.0883 8.19 18.045C8.08 17.9983 7.95667 17.975 7.82 17.975C7.61333 17.975 7.43167 18.0283 7.275 18.135C7.11833 18.2383 6.99667 18.3867 6.91 18.58C6.82667 18.77 6.785 18.9933 6.785 19.25C6.785 19.5033 6.82667 19.7267 6.91 19.92C6.99667 20.11 7.11833 20.2583 7.275 20.365C7.43167 20.4683 7.61333 20.52 7.82 20.52C8.08333 20.52 8.30667 20.4317 8.49 20.255C8.55667 20.1917 8.625 20.155 8.695 20.145C8.765 20.135 8.83167 20.145 8.895 20.175L8.905 20.185C8.975 20.2183 9.02333 20.275 9.05 20.355C9.08 20.4317 9.06333 20.5067 9 20.58C8.85333 20.74 8.68 20.8633 8.48 20.95C8.28 21.0367 8.06 21.08 7.82 21.08ZM10.6994 21.055C10.4794 21.055 10.281 21.0033 10.1044 20.9C9.93104 20.7933 9.79271 20.6467 9.68937 20.46C9.58938 20.27 9.53938 20.0483 9.53938 19.795C9.53938 19.5417 9.58938 19.3217 9.68937 19.135C9.79271 18.945 9.93104 18.7983 10.1044 18.695C10.281 18.5883 10.4794 18.535 10.6994 18.535C10.926 18.535 11.126 18.5883 11.2994 18.695C11.476 18.7983 11.6144 18.945 11.7144 19.135C11.8144 19.3217 11.8644 19.5417 11.8644 19.795C11.8644 20.0483 11.8144 20.27 11.7144 20.46C11.6144 20.6467 11.476 20.7933 11.2994 20.9C11.126 21.0033 10.926 21.055 10.6994 21.055ZM10.6994 20.545C10.876 20.545 11.0194 20.48 11.1294 20.35C11.2427 20.22 11.2994 20.035 11.2994 19.795C11.2994 19.555 11.2427 19.37 11.1294 19.24C11.0194 19.11 10.876 19.045 10.6994 19.045C10.526 19.045 10.3844 19.11 10.2744 19.24C10.1644 19.37 10.1094 19.555 10.1094 19.795C10.1094 20.035 10.1644 20.22 10.2744 20.35C10.3844 20.48 10.526 20.545 10.6994 20.545ZM12.6349 21C12.4449 21 12.3499 20.9017 12.3499 20.705V18.89C12.3499 18.6933 12.4349 18.595 12.6049 18.595C12.7716 18.595 12.8599 18.6383 12.8699 18.725L12.8899 18.885C12.9366 18.785 13.0149 18.7017 13.1249 18.635C13.2349 18.5683 13.3616 18.535 13.5049 18.535C13.6616 18.535 13.7983 18.5717 13.9149 18.645C14.0316 18.7183 14.1216 18.8233 14.1849 18.96C14.2483 18.8367 14.3399 18.735 14.4599 18.655C14.5833 18.575 14.7233 18.535 14.8799 18.535C15.1166 18.535 15.3066 18.6183 15.4499 18.785C15.5966 18.9483 15.6699 19.18 15.6699 19.48V20.705C15.6699 20.9017 15.5766 21 15.3899 21C15.1966 21 15.0999 20.9017 15.0999 20.705V19.61C15.0999 19.4333 15.0683 19.295 15.0049 19.195C14.9416 19.095 14.8533 19.045 14.7399 19.045C14.5966 19.045 14.4849 19.0967 14.4049 19.2C14.3283 19.3033 14.2899 19.45 14.2899 19.64V20.705C14.2899 20.9017 14.1966 21 14.0099 21C13.8199 21 13.7249 20.9017 13.7249 20.705V19.61C13.7249 19.4333 13.6916 19.295 13.6249 19.195C13.5583 19.095 13.4683 19.045 13.3549 19.045C13.2149 19.045 13.1066 19.0983 13.0299 19.205C12.9533 19.3083 12.9149 19.4533 12.9149 19.64V20.705C12.9149 20.9017 12.8216 21 12.6349 21ZM16.6406 21C16.4539 21 16.3606 20.9017 16.3606 20.705V18.89C16.3606 18.6933 16.4539 18.595 16.6406 18.595C16.8273 18.595 16.9206 18.6933 16.9206 18.89V20.705C16.9206 20.9017 16.8273 21 16.6406 21ZM16.6356 18.2C16.5389 18.2 16.4556 18.165 16.3856 18.095C16.3156 18.025 16.2806 17.9417 16.2806 17.845C16.2806 17.7483 16.3156 17.665 16.3856 17.595C16.4556 17.525 16.5389 17.49 16.6356 17.49C16.7323 17.49 16.8156 17.525 16.8856 17.595C16.9556 17.665 16.9906 17.7483 16.9906 17.845C16.9906 17.9417 16.9556 18.025 16.8856 18.095C16.8156 18.165 16.7323 18.2 16.6356 18.2ZM17.8839 21C17.6939 21 17.5989 20.9017 17.5989 20.705V18.89C17.5989 18.6933 17.6839 18.595 17.8539 18.595C18.0239 18.595 18.1123 18.6383 18.1189 18.725L18.1339 18.88C18.2006 18.7867 18.2889 18.7067 18.3989 18.64C18.5089 18.57 18.6389 18.535 18.7889 18.535C19.0389 18.535 19.2423 18.615 19.3989 18.775C19.5589 18.935 19.6389 19.17 19.6389 19.48V20.705C19.6389 20.9017 19.5456 21 19.3589 21C19.1689 21 19.0739 20.9017 19.0739 20.705V19.615C19.0739 19.425 19.0356 19.2833 18.9589 19.19C18.8823 19.0933 18.7789 19.045 18.6489 19.045C18.5056 19.045 18.3889 19.095 18.2989 19.195C18.2089 19.2917 18.1639 19.4367 18.1639 19.63V20.705C18.1639 20.9017 18.0706 21 17.8839 21ZM21.2402 21.995C20.8635 21.995 20.5652 21.885 20.3452 21.665C20.2752 21.5917 20.2469 21.52 20.2602 21.45C20.2735 21.38 20.3169 21.3217 20.3902 21.275C20.4635 21.225 20.5302 21.2083 20.5902 21.225C20.6502 21.2417 20.7169 21.2783 20.7902 21.335C20.9069 21.435 21.0569 21.485 21.2402 21.485C21.4369 21.485 21.5819 21.425 21.6752 21.305C21.7685 21.185 21.8152 20.9933 21.8152 20.73V20.595C21.6585 20.7583 21.4602 20.84 21.2202 20.84C21.0102 20.84 20.8219 20.7967 20.6552 20.71C20.4919 20.62 20.3635 20.49 20.2702 20.32C20.1769 20.1467 20.1302 19.935 20.1302 19.685C20.1302 19.4317 20.1769 19.22 20.2702 19.05C20.3635 18.88 20.4919 18.7517 20.6552 18.665C20.8219 18.5783 21.0102 18.535 21.2202 18.535C21.3502 18.535 21.4752 18.5633 21.5952 18.62C21.7152 18.6733 21.8135 18.765 21.8902 18.895V18.81C21.8902 18.7267 21.9119 18.67 21.9552 18.64C21.9985 18.61 22.0585 18.595 22.1352 18.595C22.2952 18.595 22.3752 18.6933 22.3752 18.89V20.73C22.3752 21.1267 22.2819 21.4367 22.0952 21.66C21.9119 21.8833 21.6269 21.995 21.2402 21.995ZM21.2652 20.345C21.4385 20.345 21.5802 20.2867 21.6902 20.17C21.8002 20.05 21.8552 19.8883 21.8552 19.685C21.8552 19.4783 21.8002 19.3183 21.6902 19.205C21.5802 19.0883 21.4385 19.03 21.2652 19.03C21.0919 19.03 20.9535 19.0883 20.8502 19.205C20.7502 19.3183 20.7002 19.4783 20.7002 19.685C20.7002 19.8883 20.7502 20.05 20.8502 20.17C20.9535 20.2867 21.0919 20.345 21.2652 20.345ZM25.7059 21.07C25.4593 21.07 25.2293 21.0283 25.0159 20.945C24.8026 20.8583 24.6193 20.715 24.4659 20.515C24.4093 20.435 24.3893 20.3617 24.4059 20.295C24.4259 20.225 24.4759 20.1683 24.5559 20.125C24.6326 20.0783 24.7026 20.065 24.7659 20.085C24.8293 20.1017 24.8926 20.145 24.9559 20.215C25.0459 20.3117 25.1526 20.3867 25.2759 20.44C25.4026 20.4933 25.5526 20.52 25.7259 20.52C25.9593 20.52 26.1226 20.4783 26.2159 20.395C26.3126 20.3083 26.3609 20.1917 26.3609 20.045C26.3609 19.9517 26.3393 19.8717 26.2959 19.805C26.2559 19.7383 26.1693 19.6767 26.0359 19.62C25.9059 19.56 25.7043 19.5 25.4309 19.44C25.1076 19.3633 24.8676 19.2417 24.7109 19.075C24.5576 18.9083 24.4809 18.6967 24.4809 18.44C24.4809 18.2367 24.5293 18.0583 24.6259 17.905C24.7259 17.7483 24.8643 17.6267 25.0409 17.54C25.2209 17.4533 25.4309 17.41 25.6709 17.41C25.9209 17.41 26.1393 17.4533 26.3259 17.54C26.5126 17.6267 26.6693 17.7383 26.7959 17.875C26.8593 17.945 26.8843 18.015 26.8709 18.085C26.8576 18.155 26.8143 18.2183 26.7409 18.275C26.6676 18.335 26.5976 18.3583 26.5309 18.345C26.4643 18.3317 26.3976 18.2933 26.3309 18.23C26.2476 18.1533 26.1526 18.09 26.0459 18.04C25.9393 17.99 25.8126 17.965 25.6659 17.965C25.4926 17.965 25.3509 18.0033 25.2409 18.08C25.1343 18.1533 25.0809 18.265 25.0809 18.415C25.0809 18.4817 25.0959 18.5467 25.1259 18.61C25.1593 18.67 25.2293 18.7283 25.3359 18.785C25.4459 18.8417 25.6143 18.8967 25.8409 18.95C26.2409 19.04 26.5293 19.175 26.7059 19.355C26.8826 19.535 26.9709 19.7617 26.9709 20.035C26.9709 20.3683 26.8543 20.625 26.6209 20.805C26.3909 20.9817 26.0859 21.07 25.7059 21.07ZM28.5461 21.055C28.3261 21.055 28.1277 21.0033 27.9511 20.9C27.7777 20.7933 27.6394 20.6467 27.5361 20.46C27.4361 20.27 27.3861 20.0483 27.3861 19.795C27.3861 19.5417 27.4361 19.3217 27.5361 19.135C27.6394 18.945 27.7777 18.7983 27.9511 18.695C28.1277 18.5883 28.3261 18.535 28.5461 18.535C28.7727 18.535 28.9727 18.5883 29.1461 18.695C29.3227 18.7983 29.4611 18.945 29.5611 19.135C29.6611 19.3217 29.7111 19.5417 29.7111 19.795C29.7111 20.0483 29.6611 20.27 29.5611 20.46C29.4611 20.6467 29.3227 20.7933 29.1461 20.9C28.9727 21.0033 28.7727 21.055 28.5461 21.055ZM28.5461 20.545C28.7227 20.545 28.8661 20.48 28.9761 20.35C29.0894 20.22 29.1461 20.035 29.1461 19.795C29.1461 19.555 29.0894 19.37 28.9761 19.24C28.8661 19.11 28.7227 19.045 28.5461 19.045C28.3727 19.045 28.2311 19.11 28.1211 19.24C28.0111 19.37 27.9561 19.555 27.9561 19.795C27.9561 20.035 28.0111 20.22 28.1211 20.35C28.2311 20.48 28.3727 20.545 28.5461 20.545ZM31.2316 21.055C31.0116 21.055 30.8133 21.0033 30.6366 20.9C30.4633 20.7933 30.3249 20.6467 30.2216 20.46C30.1216 20.27 30.0716 20.0483 30.0716 19.795C30.0716 19.5417 30.1216 19.3217 30.2216 19.135C30.3249 18.945 30.4633 18.7983 30.6366 18.695C30.8133 18.5883 31.0116 18.535 31.2316 18.535C31.4583 18.535 31.6583 18.5883 31.8316 18.695C32.0083 18.7983 32.1466 18.945 32.2466 19.135C32.3466 19.3217 32.3966 19.5417 32.3966 19.795C32.3966 20.0483 32.3466 20.27 32.2466 20.46C32.1466 20.6467 32.0083 20.7933 31.8316 20.9C31.6583 21.0033 31.4583 21.055 31.2316 21.055ZM31.2316 20.545C31.4083 20.545 31.5516 20.48 31.6616 20.35C31.7749 20.22 31.8316 20.035 31.8316 19.795C31.8316 19.555 31.7749 19.37 31.6616 19.24C31.5516 19.11 31.4083 19.045 31.2316 19.045C31.0583 19.045 30.9166 19.11 30.8066 19.24C30.6966 19.37 30.6416 19.555 30.6416 19.795C30.6416 20.035 30.6966 20.22 30.8066 20.35C30.9166 20.48 31.0583 20.545 31.2316 20.545ZM33.1671 21C32.9771 21 32.8821 20.9017 32.8821 20.705V18.89C32.8821 18.6933 32.9671 18.595 33.1371 18.595C33.3071 18.595 33.3955 18.6383 33.4021 18.725L33.4171 18.88C33.4838 18.7867 33.5721 18.7067 33.6821 18.64C33.7921 18.57 33.9221 18.535 34.0721 18.535C34.3221 18.535 34.5255 18.615 34.6821 18.775C34.8421 18.935 34.9221 19.17 34.9221 19.48V20.705C34.9221 20.9017 34.8288 21 34.6421 21C34.4521 21 34.3571 20.9017 34.3571 20.705V19.615C34.3571 19.425 34.3188 19.2833 34.2421 19.19C34.1655 19.0933 34.0621 19.045 33.9321 19.045C33.7888 19.045 33.6721 19.095 33.5821 19.195C33.4921 19.2917 33.4471 19.4367 33.4471 19.63V20.705C33.4471 20.9017 33.3538 21 33.1671 21Z" fill="white"/>
</svg>
