<?xml version="1.0" encoding="utf-8"?>
<!-- Generator: Adobe Illustrator 22.1.0, SVG Export Plug-In . SVG Version: 6.00 Build 0)  -->
<svg version="1.1" id="Layer_1" xmlns="http://www.w3.org/2000/svg" xmlns:xlink="http://www.w3.org/1999/xlink" x="0px" y="0px"
	 viewBox="0 0 569 476" style="enable-background:new 0 0 569 476;" xml:space="preserve">
<style type="text/css">
	.st0{fill:#343434;}
</style>
<g>
	<g>
		<path class="st0" d="M278.9,462.5c-23,0-43.4-2.8-49.2-19.2c-2.3-6.5-3.5-13.9-4.4-20.4c-0.4-2.4-0.8-5.5-1.3-7.9
			c-8.4-3.4-21.2-9.2-27.1-12.3c-0.3-0.2-0.6-0.3-0.9-0.5c-3.8,3.2-10,8-17.3,11.3c-18.9,8.7-31.9,2-38-2.8
			c-4.1-3.2-18.3-14.6-30.2-27.2c-7.2-7.6-24-25.4-14.9-41c1.5-2.5,3.5-5.6,5.6-8.9c2.4-3.8,7-10.9,9.2-15.2
			c-2.7-6.4-6.4-15.8-8.1-21.8c-0.3-0.9-0.5-1.7-0.8-2.3c-4.7-0.5-11.3-1.5-17.8-3.6c-17.4-5.6-22.4-16-23.6-23.6
			c-1.3-8.4-2.4-25.3-1.9-40.2c0.7-18.9,3.4-38.7,19.1-43.1c4.8-1.3,10.3-2.1,15.7-2.9c2.8-0.4,6.9-1,9.8-1.6c0.5-1.6,1.1-3.4,1.6-5
			c1.9-6,4.1-12.7,6.7-18.1c-2.5-3.1-5.9-7.7-9-12.7c-3.2-5.3-12.9-21.3-5.6-35c7.5-14,39.1-42.4,39.5-42.7
			c10-8.8,28.3-12.7,40.6-3.7l18.6,13.6c6.1-3.1,21.9-10.8,29.2-13.7c0.6-6.2,1.9-21,2.1-22.3c0.8-10.2,9.1-25.5,28.5-26
			c13.2-0.3,56.4,0,58.3,0c0.1,0,0.2,0,0.4,0c10.8,0.4,27.7,8.5,29.9,29.6c0,0,0,0.1,0,0.1c0.2,1.8,0.3,3.6,0.5,5.4
			c0.4,4.4,0.9,10.7,1.7,13.8c1.8,0.7,3.9,1.5,6.1,2.4c7.9,3,16.7,6.4,22.9,9.9c0.2,0,0.5-0.1,0.6-0.1c2.9-2.9,9.4-8.6,16.9-12.9
			c18.1-10.3,29.5-4.9,34.7-0.7c9.7,7.8,35.6,36.9,40.7,42.6c0.4,0.5,0.8,1,1.2,1.5c5,7.4,10.6,23.7-0.5,38.2
			c-7.9,10.4-10.2,14.9-10.9,16.9c1.1,3.8,4.9,13.1,8.3,20.5c0.4,0.4,1.4,1,3.2,1.2c5.1,0.6,14.5,1.7,22.8,5.5
			c12.2,5.6,19,15.6,19.2,28.1c0.2,14.9,0,42.2,0,44.3c0,9.1-5.6,27.5-27.1,32.7c-0.2,0.1-0.4,0.1-0.7,0.1c-2.8,0.6-5.6,1-8.3,1.3
			c-3.3,0.5-8.2,1.2-10.2,2c-2.6,4-7.3,14.6-8.7,20.2c2.4,3.4,7.2,9,11,13.2c0.2,0.2,0.3,0.4,0.5,0.6c6.2,7.6,14,26.5-1.3,43.7
			c-8.5,9.6-30.5,30.4-34.4,34c-8.3,9.2-26.2,17.7-44.1,4.9c-0.6-0.4-1.1-0.8-1.6-1.3c-4.3-4-9.7-8.2-13-10.2c-1.8,0.8-4,2-5.9,3
			c-5.8,3-13.1,6.8-20.7,8.8c-0.1,0-0.2,0.1-0.3,0.1c-0.7,4.9-2.1,14-5.2,22.7c-7.3,20.3-19.4,25.2-28.3,25.8c-0.3,0-0.6,0-0.9,0
			c-4.1,0-8.9,0.2-14,0.3C291.5,462.3,285.1,462.5,278.9,462.5z M257.1,430.7c7.6,2.5,29,1.8,39.7,1.4c4.6-0.1,9.1-0.3,13.1-0.3
			c1.3-1.6,4.6-7,6.8-24c0.2-1.2,0.3-2,0.4-2.9c1.3-6.7,6-15.6,20.3-20.4c0.3-0.1,0.7-0.2,1.1-0.3c4.4-1.1,10-4,14.8-6.5
			c5.8-3,10.9-5.7,16-6.7c3.5-0.7,14.1-2.8,36.3,17.8c0.9,0.5,2,0.7,3.7-1.1c0.4-0.6,0.6-0.6,1.2-1.2c0.2-0.2,24.8-23.3,33.1-32.6
			c0.9-1,2.1-2.3,0.5-4.8c-6.7-7.4-15-17.3-17.4-23.5c-1.8-4.7-2.7-11.3,3.7-27.5c2.7-6.8,6.9-15.8,10.8-20.9
			c7.3-9.6,19.5-11.3,29.3-12.8c2.3-0.3,4.5-0.6,6.5-1c1.3-0.3,3.6-1.1,3.9-3.8c0-2.7,0.2-29.3,0-43.5c0-0.1,0-0.2,0-0.3
			c-1-1-4.3-2.6-15.4-3.9c-13.7-1.6-22.6-9.9-26.1-16.5c-0.1-0.2-0.2-0.5-0.3-0.7c-3-6.5-10.1-22.5-11.4-30.4
			c-2.1-12.8,6.7-25.7,16.8-39c0.5-0.7,0-2.1-0.3-2.8c-10.2-11.5-26.6-29.4-34-36.2c-3.8,1.5-10.3,6.1-13.7,9.6
			c-8.3,8.6-22.5,11.4-33.7,6.6c-0.7-0.3-1.5-0.7-2.2-1.1c-3.7-2.4-13.3-6-19.6-8.4c-3.9-1.5-7.2-2.8-9.8-3.9
			c-14.5-6.4-15.9-23.1-17.2-37.8c-0.1-1.6-0.3-3.3-0.4-5c-0.2-2.2-0.9-2.5-1-2.6c-4.2,0-43.8-0.3-56.4,0
			c-0.4,4.6-1.8,19.1-2.1,23.1c-1,10.5-8.9,20.2-18.6,23.1c-3.4,1.2-20.7,9.4-28.8,13.6c-11.1,5.7-22.4,2.5-29.1-3.6L159.9,87
			c-1.2,0-3.2,0.6-4,1.3c-8.8,7.8-26.3,25-31.7,32.5c1.5,4.6,7.6,13.7,12.3,19c6.8,7.4,7.9,17.3,3,27.1c-0.2,0.4-0.4,0.8-0.6,1.1
			c-1.7,2.8-4.2,10.5-5.9,15.6c-1.8,5.7-3.3,10.1-5,13.4c-5.3,9.9-17,11.7-30.6,13.7c-2.6,0.4-5.2,0.8-7.6,1.2
			c-2.3,9.7-2.3,34.7-0.3,49.1c3.9,2.4,14.9,3.7,18.4,4.1c2.1,0.2,3.4,0.3,4.8,0.7c8.4,2.1,14.6,9.7,18.4,22.7
			c1.7,5.8,6.6,18,8.7,22.4c5,10.8-2.3,22.1-13.4,39.2c-0.8,1.2-1.5,2.3-2.2,3.4c4.6,6.9,18.4,20.8,35,33.8c0.5,0.4,1.9,1.5,7-0.8
			c5.2-2.4,10.1-6.7,12.5-8.7c0.8-0.7,1.4-1.2,2.1-1.7c5.6-4.3,15.4-7.7,30.4,0.4c6.4,3.5,22.8,10.6,27.8,12.4
			c12.1,4.2,14.1,17.1,16,29.7C255.5,422.5,256.2,427,257.1,430.7z M344.8,414L344.8,414L344.8,414z M193.6,401.4L193.6,401.4
			L193.6,401.4z M409.4,387.8L409.4,387.8L409.4,387.8z M444.2,349.2L444.2,349.2L444.2,349.2z M480.9,260.1L480.9,260.1
			L480.9,260.1z M480.9,259.9c0,0,0,0.1,0,0.1C480.9,259.9,480.9,259.9,480.9,259.9z M480.9,259.7c0,0.1,0,0.3,0,0.3
			c0,0,0-0.1,0-0.2C480.9,259.8,480.9,259.8,480.9,259.7z M235.4,89.9C235.3,89.9,235.3,89.9,235.4,89.9
			C235.3,89.9,235.3,89.9,235.4,89.9z M158.9,86.2L158.9,86.2L158.9,86.2z M374.3,74.8C374.3,74.8,374.3,74.8,374.3,74.8
			S374.3,74.8,374.3,74.8z M256.3,42.2C256.3,42.3,256.3,42.3,256.3,42.2c0,0.1,0,0.2,0,0.5c0,0,0,0,0,0
			C256.3,42.7,256.3,42.4,256.3,42.2z M256.4,42.1C256.4,42.1,256.4,42.1,256.4,42.1C256.4,42.1,256.4,42.1,256.4,42.1z"/>
	</g>
	<g>
		<path class="st0" d="M286.4,356.2c-8.1,0-16.2-3.8-22.3-9.2c-4.6-3.7-54.6-44.5-80.2-74.8c-17.6-20.8-20.4-43.9-19.7-59.7
			c0.8-18.1,6.8-35.8,16-47.5c0.3-0.3,0.5-0.7,0.8-1c15.3-16.3,32.7-24.3,51.8-23.9c22,0.5,40.6,12.7,51.8,22
			c20.9-17,40-20.8,53.1-20.8c26.2,0.2,42.6,14.7,47.4,19.7c31.9,30.5,23.9,76.9,1.8,109.4c-19.9,29.2-85.9,80.4-86.5,80.9
			C296.1,354.8,291.2,356.2,286.4,356.2z M283.7,324.4c0.4,0.4,1,0.7,1.5,1.1c16-12.4,63.5-51.9,77-71.7c11.2-16.5,24.3-50,2.1-71
			c-0.2-0.2-0.4-0.4-0.6-0.6c-4.6-4.9-14.2-10.6-26.1-10.7c-0.1,0-0.2,0-0.3,0c-13.9,0-28.1,7.3-42.1,21.8c-2.9,3-7,4.7-11.2,4.5
			c-4.2-0.1-8.1-2-10.9-5.2c-0.3-0.4-19.3-21.9-41-22.4c-10.1-0.2-19.5,4.3-28.7,13.9c-8.9,11.9-17.1,44.5,3.4,68.7
			c24.5,28.9,75.9,70.6,76.4,71C283.5,324.1,283.5,324.2,283.7,324.4z"/>
	</g>
</g>
</svg>
