<?xml version="1.0" encoding="utf-8"?>
<!-- Generator: Adobe Illustrator 22.1.0, SVG Export Plug-In . SVG Version: 6.00 Build 0)  -->
<svg version="1.1" id="Layer_1" xmlns="http://www.w3.org/2000/svg" xmlns:xlink="http://www.w3.org/1999/xlink" x="0px" y="0px"
	 viewBox="0 0 569 476" style="enable-background:new 0 0 569 476;" xml:space="preserve">
<style type="text/css">
	.st0{fill:#FDB813;}
</style>
<path class="st0" d="M502.9,216.9c-0.2-15.7-18.6-18.3-29.7-19.5c-11-1.3-15-8.8-15-8.8s-9.4-20.5-10.6-27.4
	c-1.2-7,6.7-18.3,14.4-28.4c7.7-10.1,0-21.4,0-21.4S431.5,76.7,421.9,69c-9.5-7.7-28.8,9-32.8,13c-4,4.1-11.6,5.9-17.7,3.4
	c-7.6-4.8-25-10.6-32.5-13.8c-7.4-3.3-7.6-16.5-9-31.5c-1.6-16.2-15.9-16.6-15.9-16.6s-46.2-0.3-59.7,0C241,23.8,240,36.1,240,36.1
	s-1.9,20.4-2.3,25.1c-0.5,4.8-4.4,9.4-8.4,10.6c-4,1.2-24.9,11.3-32.3,15.1c-7.4,3.8-13-1.9-13-1.9l-20-14.7
	c-5.6-4.1-16.6-2.3-22.5,3c-5.9,5.2-31.9,29.7-37.3,39.8c-5.4,10.1,14.3,33.5,16.1,35.4c1.7,1.9,3.5,5.1,0.7,10.6
	c-4.7,7.7-8.9,25.5-11.7,30.7s-23.2,5.6-34.5,8.7c-11.3,3.1-8.9,54.3-6.6,68.7c2.3,14.5,32.5,15.2,35.2,15.9
	c2.8,0.7,5.8,5.6,7.9,12.7c2.1,7.2,7.7,20.8,9.8,25.3c2.1,4.5-12.7,24.9-18.1,34.2c-5.4,9.2,26.5,37.7,42.7,50.4s38.2-9.2,41.2-11.5
	c3-2.3,7.5-2.1,14.7,1.7c7.2,3.8,24.9,11.7,31.1,13.8c6.1,2.1,5.4,23.4,10.1,36.6c4.7,13.3,47.1,8.7,70.3,8.7
	c17.3-1,20.1-37,20.7-40.1c0.6-3.1,2.9-6.8,10.7-9.4c11.7-3,24.1-12.1,31.1-13.5c7-1.4,24.8,15.4,24.8,15.4
	c14.2,10.1,25.4-3.3,25.4-3.3s26-24.4,35.1-34.7c11.2-12.6,0.9-25,0.9-25s-13.5-14.8-15.6-20.1c-2.1-5.4,8-28.6,12.9-35
	c4.9-6.4,17.2-6.4,27.9-8.5c16.3-4,16.2-18.7,16.2-18.7S503.1,232.6,502.9,216.9z M377.6,264.7c-17.5,25.8-78.4,74.3-85.8,79.9
	s-18.3-4.1-18.3-4.1s-54.5-44-81-75.4s-16.9-74-3.5-91.1c46.1-49.1,95.5,8.7,95.5,8.7c41.8-42.9,79.5-25.6,93.1-11.3
	C405.6,197.9,395.1,238.9,377.6,264.7z"/>
</svg>
