<?xml version="1.0" encoding="utf-8"?>
<!-- Generator: Adobe Illustrator 22.1.0, SVG Export Plug-In . SVG Version: 6.00 Build 0)  -->
<svg version="1.1" id="Layer_1" xmlns="http://www.w3.org/2000/svg" xmlns:xlink="http://www.w3.org/1999/xlink" x="0px" y="0px"
	 viewBox="0 0 569 476" style="enable-background:new 0 0 569 476;" xml:space="preserve">
<style type="text/css">
	.st0{fill:#FDB813;}
</style>
<g transform="translate(0, 38) scale(2.4, 2.38)">
<path class="st0" d="M196.3,89.3c-3-3-74.2-73.5-80.1-79.1c-6.4-6-12.5-9.1-18-9.1c-9.2,0-17.8,9-20.4,12.2L3.4,89.5
	c-2.9,3-2.9,7.7,0.1,10.6c1.4,1.4,3.3,2.1,5.2,2.1c1.9,0,3.9-0.8,5.3-2.3l9.5-9.8v4.6v83.7c0,0-0.5,13,16.1,13c16.6,0,40.1,0,40.1,0
	v-72.8h20.1H120v72.8c0,0,23.5,0,40.1,0c16.6,0,16.1-13,16.1-13V90.5c5.7,5.6,9.3,9.3,9.5,9.4c2.9,3,7.7,2.9,10.6,0
	C199.3,97,199.2,92.2,196.3,89.3z"/>
</g>
</svg>
