<?xml version="1.0" encoding="utf-8"?>
<!-- Generator: Adobe Illustrator 22.1.0, SVG Export Plug-In . SVG Version: 6.00 Build 0)  -->
<svg version="1.1" id="Layer_1" xmlns="http://www.w3.org/2000/svg" xmlns:xlink="http://www.w3.org/1999/xlink" x="0px" y="0px"
	 viewBox="0 0 569 476" style="enable-background:new 0 0 569 476;" xml:space="preserve">
<style type="text/css">
	.st0{fill:#343434;}
</style>
<g transform="translate(0, 38) scale(2.4, 2.38)">
	<path class="st0" d="M8.7,102.2c-1.9,0-3.8-0.7-5.2-2.1c-3-2.9-3-7.6-0.1-10.6l74.4-76.2C80.4,10.1,89,1.1,98.2,1.1
		c5.5,0,11.6,3.1,18,9.1c5.9,5.6,77.1,76.1,80.1,79.1c2.9,2.9,3,7.7,0,10.6c-2.9,2.9-7.7,3-10.6,0c-0.7-0.7-74.1-73.4-79.9-78.9
		c-5.1-4.9-7.6-5-7.6-5c-1.7,0.1-6.3,3.6-9.4,7.1c-0.1,0.1-0.2,0.2-0.3,0.3L14,99.9C12.6,101.4,10.6,102.2,8.7,102.2z"/>
	<path class="st0" d="M160.1,198.9H120c-4.1,0-7.5-3.4-7.5-7.5v-65.3H87.2v65.3c0,4.1-3.4,7.5-7.5,7.5H39.6
		c-7.7,0-13.8-2.3-18.1-6.7c-5.3-5.5-5.5-12.3-5.5-13.8l0-98.8c0-2,0.8-3.8,2.1-5.2l59.6-61.1C80.4,10.1,89,1.1,98.2,1.1
		c5.5,0,11.6,3.1,18,9.1c4,3.8,37.5,36.9,65,64.1l0.3,0.3c1.4,1.4,2.2,3.3,2.2,5.3v98.3c0,1.5-0.2,8.3-5.5,13.8
		C173.9,196.6,167.8,198.9,160.1,198.9z M127.5,183.9h32.6c7,0,8.5-2.8,8.6-5.3c0-0.1,0,0,0-0.2V83.1c-37.6-37.2-59.9-59.2-62.8-62
		c-5.1-4.9-7.6-5-7.6-5c-1.7,0.1-6.3,3.6-9.4,7.1c-0.1,0.1-0.2,0.2-0.3,0.3L31,82.6l0,95.8c0,0.2,0,0.1,0,0.2
		c0.1,2.4,1.7,5.3,8.6,5.3h32.6v-65.3c0-4.1,3.4-7.5,7.5-7.5H120c4.1,0,7.5,3.4,7.5,7.5V183.9z"/>
</g>
</svg>
