<?xml version="1.0" encoding="utf-8"?>
<!-- Generator: Adobe Illustrator 22.1.0, SVG Export Plug-In . SVG Version: 6.00 Build 0)  -->
<svg version="1.1" id="Layer_1" xmlns="http://www.w3.org/2000/svg" xmlns:xlink="http://www.w3.org/1999/xlink" x="0px" y="0px"
	 viewBox="0 0 569 476" style="enable-background:new 0 0 569 476;" xml:space="preserve">
<style type="text/css">
	.st0{fill:#343434;}
</style>
<g transform="translate(0, 38) scale(2.5, 2.38)">
	<path class="st0" d="M100.2,182.2l-0.9-0.1c-2.3-0.3-5.6-1.3-8.4-4.9c-3.2-3.9-53-54.9-85.7-88.3l-0.3-0.3l-0.3-0.3
		c-3.5-4.6-4.9-12.1,0.5-17.8l34.1-36.1c1.5-1.9,5.6-6.4,11.4-7c0.8-0.1,2.5-0.3,49.7-0.2c47.1-0.1,48.8,0.1,49.6,0.2
		c5.7,0.6,9.9,5.1,11.4,7l34.1,36.1c5.4,5.7,4,13.2,0.5,17.8l-0.3,0.3l-0.3,0.3c-32.7,33.4-82.5,84.4-85.7,88.3
		c-2.8,3.6-6.2,4.6-8.4,4.9L100.2,182.2z M17.1,79.6c11.5,11.7,70.1,71.6,83.1,85.6c13.1-14.1,71.7-73.9,83.1-85.6l-33.6-35.5
		l-0.3-0.3c-0.4-0.5-1.1-1.1-1.5-1.4c-2.1-0.1-11.2-0.2-47.8-0.1c-36.6-0.1-45.7,0-47.8,0.1c-0.4,0.3-1.1,0.9-1.5,1.5l-0.5,0.6
		L17.1,79.6z M184.4,80.8C184.4,80.8,184.4,80.8,184.4,80.8L184.4,80.8z M16.5,79C16.5,79,16.5,79,16.5,79C16.5,79,16.5,79,16.5,79
		L16.5,79z M52.6,42.2C52.6,42.2,52.6,42.2,52.6,42.2L52.6,42.2z M147.8,42.2L147.8,42.2L147.8,42.2z"/>
	<polygon class="st0" points="141.5,76.9 102.5,112.6 63.5,76.9 48.3,76.9 102.5,136.9 156.7,76.9 "/>
</g>
</svg>
