<?xml version="1.0" encoding="utf-8"?>
<!-- Generator: Adobe Illustrator 22.1.0, SVG Export Plug-In . SVG Version: 6.00 Build 0)  -->
<svg version="1.1" id="Layer_1" xmlns="http://www.w3.org/2000/svg" xmlns:xlink="http://www.w3.org/1999/xlink" x="0px" y="0px"
	 viewBox="0 0 569 476" style="enable-background:new 0 0 569 476;" xml:space="preserve">
<style type="text/css">
	.st0{fill:#FDB813;}
	.st1{fill:#FFFFFF;}
</style>
<g transform="translate(0, 38) scale(2.5, 2.38)">
<path class="st0" d="M189.8,75.6l-34.3-36.3c0,0-3-4-6.4-4.4c-1.7-0.2-25.8-0.2-48.9-0.1c-23.1,0-47.2,0-48.9,0.1
	c-3.4,0.3-6.4,4.4-6.4,4.4L10.5,75.6c-3.4,3.6,0,8.1,0,8.1s82.1,83.8,86.2,88.9c1.2,1.5,2.4,2,3.5,2.2c1.1-0.1,2.3-0.7,3.5-2.2
	c4-5,86.2-88.9,86.2-88.9S193.2,79.2,189.8,75.6z"/>
<polygon class="st1" points="141.5,76.9 102.5,112.6 63.5,76.9 48.3,76.9 102.5,136.9 156.7,76.9 "/>
</g>
</svg>
