<?xml version="1.0" encoding="utf-8"?>
<!-- Generator: Adobe Illustrator 22.1.0, SVG Export Plug-In . SVG Version: 6.00 Build 0)  -->
<svg version="1.1" id="Layer_1" xmlns="http://www.w3.org/2000/svg" xmlns:xlink="http://www.w3.org/1999/xlink" x="0px" y="0px"
	 viewBox="0 0 569 476" style="enable-background:new 0 0 569 476;" xml:space="preserve">
<style type="text/css">
	.st0{fill:#343434;}
</style>
<g transform="translate(0, 38) scale(2.5, 2.38)">
	<path class="st0" d="M27.2,133.4c-3.6,0-11.3-0.7-17.2-6c-3-2.8-6.7-7.9-6.7-16.5c0-10.2,6.7-34,21.6-55.1
		c13.3-19,37.3-41.6,75.8-41.6c71.1,0,96.3,76.4,96.3,96c0,8.8-3.6,14-6.6,16.9c-6.6,6.3-15.6,6.3-17.5,6.3H28.7
		C28.3,133.4,27.8,133.4,27.2,133.4z M100.7,29.2c-32.1,0-52.3,19.1-63.6,35.2C23.8,83.3,18.3,104,18.3,110.9c0,3.7,1.3,5,1.8,5.4
		c2.2,2,6.4,2.2,7.7,2.1c0.2,0,0.4,0,0.6,0H173c0.1,0,0.3,0,0.4,0c1.1,0,4.7-0.3,6.6-2.2c0.5-0.5,1.9-1.8,1.9-6
		C182,95.9,160.8,29.2,100.7,29.2z"/>
	<path class="st0" d="M80.6,199c-16.8,0-27.6-10.3-27.6-26.2c0-4.1,3.4-7.5,7.5-7.5s7.5,3.4,7.5,7.5c0,2.8,0,11.2,12.6,11.2
		c4.6,0,8-1.2,10.4-3.6c4.1-4.2,4.1-11.3,4.1-11.3c0-0.1,0-0.1,0-0.2v-43.1c0-4.1,3.4-7.5,7.5-7.5s7.5,3.4,7.5,7.5v43
		c0,1.8-0.1,13.6-8.4,22.1C96.6,196.2,89.3,199,80.6,199z"/>
	<path class="st0" d="M100.7,29.2c-4.1,0-7.5-3.4-7.5-7.5V8.6c0-4.1,3.4-7.5,7.5-7.5s7.5,3.4,7.5,7.5v13.1
		C108.2,25.9,104.9,29.2,100.7,29.2z"/>
	<path class="st0" d="M44.1,91.2c-1,0-2-0.2-2.9-0.6c-3.8-1.6-5.6-6-4-9.8c12.9-30.6,40.3-42.6,41.4-43.1c3.8-1.6,8.2,0.1,9.9,3.9
		c1.6,3.8-0.1,8.2-3.9,9.8C84.2,51.5,61.5,61.8,51,86.6C49.8,89.4,47,91.2,44.1,91.2z"/>
</g>
</svg>
