<?xml version="1.0" encoding="utf-8"?>
<!-- Generator: Adobe Illustrator 22.1.0, SVG Export Plug-In . SVG Version: 6.00 Build 0)  -->
<svg version="1.1" id="Layer_1" xmlns="http://www.w3.org/2000/svg" xmlns:xlink="http://www.w3.org/1999/xlink" x="0px" y="0px"
	 viewBox="0 0 569 476" style="enable-background:new 0 0 569 476;" xml:space="preserve">
<style type="text/css">
	.st0{fill:#FDB813;}
	.st1{fill:#FFFFFF;}
</style>
<g transform="translate(0, 38) scale(2.5, 2.38)">
	<path class="st0" d="M31.3,130c-3.4,0-10.7-0.7-16.2-5.7c-2.8-2.6-6.3-7.5-6.3-15.6c0-9.6,6.3-32.1,20.4-52
		c12.5-17.9,35.2-39.2,71.5-39.2c67.1,0,90.8,72.1,90.8,90.5c0,8.3-3.4,13.2-6.2,15.9c-6.2,5.9-14.7,5.9-16.5,5.9h-136
		C32.4,130,31.9,130,31.3,130z"/>
	<path class="st0" d="M80.6,199C63.8,199,53,188.7,53,172.8c0-4.1,3.4-7.5,7.5-7.5s7.5,3.4,7.5,7.5c0,2.8,0,11.2,12.6,11.2
		c4.6,0,8-1.2,10.4-3.6c4.1-4.2,4.1-11.3,4.1-11.3c0-0.1,0-0.1,0-0.2v-43.1c0-4.1,3.4-7.5,7.5-7.5s7.5,3.4,7.5,7.5v43
		c0,1.8-0.1,13.6-8.4,22.1C96.6,196.2,89.3,199,80.6,199z"/>
	<path class="st0" d="M100.7,29.2c-4.1,0-7.5-3.4-7.5-7.5V8.6c0-4.1,3.4-7.5,7.5-7.5s7.5,3.4,7.5,7.5v13.1
		C108.2,25.9,104.9,29.2,100.7,29.2z"/>
	<path class="st1" d="M44.1,91.2c-1,0-2-0.2-2.9-0.6c-3.8-1.6-5.6-6-4-9.8c12.9-30.6,40.3-42.6,41.4-43.1c3.8-1.6,8.2,0.1,9.9,3.9
		c1.6,3.8-0.1,8.2-3.9,9.8C84.2,51.5,61.5,61.8,51,86.6C49.8,89.4,47,91.2,44.1,91.2z"/>
</g>
</svg>
